<svg xmlns="http://www.w3.org/2000/svg" version="1.1" style="font-family:Lato, &#x27;Helvetica Neue&#x27;, Helvetica, Arial, &#x27;Liberation Sans&#x27;, sans-serif;font-size:18px;background-color:#ffffff;text-rendering:geometricPrecision;-webkit-font-smoothing:antialiased" width="850" height="706.25" viewBox="0 0 850 706.25"><defs><style>@import url(https://ourworldindata.org/fonts.css)</style></defs><defs><pattern id="noDataPattern" patternUnits="userSpaceOnUse" width="4" height="4" patternTransform="rotate(-45 2 2)"><path d="M -1,2 l 6,0" stroke="#ccc" stroke-width="0.7"></path></pattern></defs><rect class="background-fill" fill="#ffffff" width="850" height="706.25"></rect><g id="header" class="HeaderView"><g id="logo" transform="translate(769, 16) scale(1)"><svg className="owidLogo" xmlns="http://www.w3.org/2000/svg" width="65" height="36" viewBox="0 0 65 36"  fill="none"><path fill="#002147" d="M0 0h64.8v36H0z"/><path fill="#CE261E" d="M0 33.3h64.8V36H0z"/><path fill="#fff" d="M13.796 10.575c0 .636-.106 1.226-.318 1.77a4.193 4.193 0 0 1-.894 1.404 4.084 4.084 0 0 1-1.386.93c-.54.22-1.138.33-1.794.33-.656 0-1.256-.11-1.8-.33a4.149 4.149 0 0 1-1.392-.93 4.193 4.193 0 0 1-.894-1.404A4.833 4.833 0 0 1 5 10.575c0-.636.106-1.224.318-1.764a4.18 4.18 0 0 1 .894-1.41 4.076 4.076 0 0 1 1.392-.924 4.684 4.684 0 0 1 1.8-.336c.656 0 1.254.112 1.794.336.54.224 1.002.534 1.386.93.384.392.682.86.894 1.404.212.54.318 1.128.318 1.764Zm-1.656 0c0-.476-.064-.902-.192-1.278a2.671 2.671 0 0 0-.54-.966 2.332 2.332 0 0 0-.864-.606 2.94 2.94 0 0 0-1.14-.21c-.424 0-.806.07-1.146.21-.34.14-.63.342-.87.606a2.742 2.742 0 0 0-.546.966 3.955 3.955 0 0 0-.192 1.278c0 .476.064.904.192 1.284.128.376.31.696.546.96.24.26.53.46.87.6.34.14.722.21 1.146.21.424 0 .804-.07 1.14-.21.34-.14.628-.34.864-.6.236-.264.416-.584.54-.96a4.01 4.01 0 0 0 .192-1.284ZM16.104 8.757v3.912c0 .376.086.668.258.876.176.204.438.306.786.306.256 0 .496-.056.72-.168a2.58 2.58 0 0 0 .636-.474V8.757h1.482v6.156h-.906c-.192 0-.318-.09-.378-.27l-.102-.492a4.65 4.65 0 0 1-.396.354 2.577 2.577 0 0 1-.438.27 2.35 2.35 0 0 1-.498.168 2.345 2.345 0 0 1-.57.066c-.336 0-.634-.056-.894-.168a1.821 1.821 0 0 1-.648-.486 2.157 2.157 0 0 1-.402-.738 3.233 3.233 0 0 1-.132-.948V8.757h1.482ZM21.328 14.913V8.757h.87c.152 0 .258.028.318.084.06.056.1.152.12.288l.09.744c.22-.38.478-.68.774-.9.296-.22.628-.33.996-.33.304 0 .556.07.756.21l-.192 1.11c-.012.072-.038.124-.078.156a.278.278 0 0 1-.162.042 1.01 1.01 0 0 1-.246-.042 1.646 1.646 0 0 0-.414-.042c-.308 0-.572.086-.792.258-.22.168-.406.416-.558.744v3.834h-1.482ZM27.347 6.237h1.356a.57.57 0 0 1 .348.102c.096.064.16.152.192.264l1.476 5.19c.036.128.068.268.096.42.032.148.062.306.09.474a5.968 5.968 0 0 1 .228-.894l1.704-5.19a.575.575 0 0 1 .186-.252.543.543 0 0 1 .348-.114h.474a.57.57 0 0 1 .348.102.497.497 0 0 1 .192.264l1.692 5.19c.088.256.164.54.228.852.028-.156.056-.306.084-.45.032-.144.064-.278.096-.402l1.476-5.19c.028-.1.09-.186.186-.258a.563.563 0 0 1 .348-.108h1.266l-2.694 8.676h-1.458l-1.896-5.928-.078-.246a9.504 9.504 0 0 1-.072-.282c-.024.1-.05.194-.078.282-.024.088-.048.17-.072.246l-1.914 5.928H30.04l-2.694-8.676ZM42.771 8.661c.46 0 .876.074 1.248.222.376.148.696.358.96.63s.468.604.612.996c.144.392.216.83.216 1.314 0 .488-.072.928-.216 1.32a2.85 2.85 0 0 1-.612 1.002 2.653 2.653 0 0 1-.96.636 3.35 3.35 0 0 1-1.248.222c-.46 0-.878-.074-1.254-.222a2.712 2.712 0 0 1-.966-.636 2.922 2.922 0 0 1-.618-1.002 3.807 3.807 0 0 1-.216-1.32c0-.484.072-.922.216-1.314.148-.392.354-.724.618-.996.268-.272.59-.482.966-.63a3.397 3.397 0 0 1 1.254-.222Zm0 5.202c.512 0 .89-.172 1.134-.516.248-.344.372-.848.372-1.512s-.124-1.17-.372-1.518c-.244-.348-.622-.522-1.134-.522-.52 0-.904.176-1.152.528-.248.348-.372.852-.372 1.512s.124 1.164.372 1.512c.248.344.632.516 1.152.516ZM46.723 14.913V8.757h.87c.152 0 .258.028.318.084.06.056.1.152.12.288l.09.744c.22-.38.478-.68.774-.9.296-.22.628-.33.996-.33.304 0 .556.07.756.21l-.192 1.11c-.012.072-.038.124-.078.156a.278.278 0 0 1-.162.042 1.01 1.01 0 0 1-.246-.042 1.646 1.646 0 0 0-.414-.042c-.308 0-.572.086-.792.258-.22.168-.406.416-.558.744v3.834h-1.482ZM52.96 5.997v8.916h-1.482V5.997h1.482ZM58.732 14.913c-.192 0-.318-.09-.378-.27l-.12-.594a3.68 3.68 0 0 1-.402.39c-.14.116-.292.216-.456.3-.16.084-.334.148-.522.192a2.372 2.372 0 0 1-.6.072c-.336 0-.644-.07-.924-.21a2.098 2.098 0 0 1-.726-.606 3.033 3.033 0 0 1-.468-.99 5.072 5.072 0 0 1-.162-1.344c0-.456.062-.88.186-1.272s.302-.732.534-1.02c.232-.288.51-.512.834-.672a2.384 2.384 0 0 1 1.092-.246 2.103 2.103 0 0 1 1.536.606V5.997h1.482v8.916h-.906Zm-1.974-1.086c.308 0 .57-.064.786-.192.216-.128.42-.31.612-.546v-2.76a1.452 1.452 0 0 0-.552-.432 1.597 1.597 0 0 0-.636-.126c-.224 0-.428.042-.612.126a1.21 1.21 0 0 0-.462.384c-.124.168-.22.384-.288.648-.068.26-.102.568-.102.924 0 .36.028.666.084.918.06.248.144.452.252.612.108.156.24.27.396.342.156.068.33.102.522.102ZM16.331 20.757v6.156H14.85v-6.156h1.481Zm.223-1.794a.844.844 0 0 1-.078.36.963.963 0 0 1-.21.294.995.995 0 0 1-.3.204.963.963 0 0 1-.372.072.948.948 0 0 1-.367-.072 1.018 1.018 0 0 1-.498-.498.963.963 0 0 1 0-.732.995.995 0 0 1 .205-.3.929.929 0 0 1 .293-.198.899.899 0 0 1 .738 0 .912.912 0 0 1 .3.198.943.943 0 0 1 .288.672ZM17.771 26.913v-6.156h.906c.192 0 .318.09.378.27l.102.486a2.934 2.934 0 0 1 .828-.618c.156-.076.322-.134.498-.174.176-.04.368-.06.576-.06.336 0 .634.058.894.174.26.112.476.272.648.48.176.204.308.45.396.738.092.284.138.598.138.942v3.918h-1.482v-3.918c0-.376-.088-.666-.264-.87-.172-.208-.432-.312-.78-.312-.256 0-.496.058-.72.174a2.58 2.58 0 0 0-.636.474v4.452h-1.482ZM34.22 22.575c0 .636-.106 1.22-.318 1.752-.212.532-.51.99-.894 1.374a4 4 0 0 1-1.386.894 4.87 4.87 0 0 1-1.794.318h-3.312v-8.676h3.312a4.79 4.79 0 0 1 1.794.324 4 4 0 0 1 1.386.894c.384.38.682.836.894 1.368.212.532.318 1.116.318 1.752Zm-1.65 0c0-.476-.064-.902-.192-1.278a2.68 2.68 0 0 0-.546-.96 2.332 2.332 0 0 0-.864-.606 2.94 2.94 0 0 0-1.14-.21h-1.686v6.108h1.686c.424 0 .804-.07 1.14-.21.34-.14.628-.34.864-.6a2.75 2.75 0 0 0 .546-.96 4.01 4.01 0 0 0 .192-1.284ZM39.98 26.913h-.665c-.14 0-.25-.02-.33-.06-.08-.044-.14-.13-.18-.258l-.132-.438c-.156.14-.31.264-.462.372a2.804 2.804 0 0 1-.462.264c-.16.072-.33.126-.51.162-.18.036-.38.054-.6.054-.26 0-.5-.034-.72-.102a1.618 1.618 0 0 1-.57-.318 1.448 1.448 0 0 1-.366-.522 1.852 1.852 0 0 1-.132-.726c0-.232.06-.46.18-.684.124-.228.328-.432.612-.612.284-.184.662-.336 1.134-.456.472-.12 1.058-.188 1.758-.204v-.36c0-.412-.088-.716-.264-.912-.172-.2-.424-.3-.756-.3a1.837 1.837 0 0 0-1.02.276c-.116.068-.224.13-.324.186a.664.664 0 0 1-.33.084.429.429 0 0 1-.258-.078.614.614 0 0 1-.174-.192l-.27-.474c.708-.648 1.562-.972 2.562-.972.36 0 .68.06.96.18.284.116.524.28.72.492.196.208.344.458.444.75.104.292.156.612.156.96v3.888Zm-2.88-.924c.153 0 .293-.014.42-.042.129-.028.249-.07.36-.126.117-.056.227-.124.33-.204.109-.084.217-.182.325-.294v-1.038c-.432.02-.794.058-1.086.114-.288.052-.52.12-.696.204a.923.923 0 0 0-.378.294.664.664 0 0 0-.108.366c0 .26.076.446.228.558.156.112.358.168.606.168ZM43.22 27.01c-.532 0-.942-.15-1.23-.45-.288-.305-.432-.723-.432-1.255v-3.438h-.624a.31.31 0 0 1-.21-.078c-.056-.052-.084-.13-.084-.234v-.588l.99-.162.312-1.68a.302.302 0 0 1 .108-.186.365.365 0 0 1 .222-.066h.768v1.938h1.62v1.056h-1.62v3.336c0 .192.048.342.144.45a.488.488 0 0 0 .384.162c.092 0 .168-.01.228-.03.064-.024.118-.048.162-.072.048-.024.09-.046.126-.066a.194.194 0 0 1 .108-.036.16.16 0 0 1 .108.036c.028.02.058.052.09.096l.444.72c-.216.18-.464.316-.744.408a2.77 2.77 0 0 1-.87.138ZM50.423 26.913h-.666c-.14 0-.25-.02-.33-.06-.08-.044-.14-.13-.18-.258l-.132-.438c-.156.14-.31.264-.462.372a2.804 2.804 0 0 1-.462.264c-.16.072-.33.126-.51.162-.18.036-.38.054-.6.054-.26 0-.5-.034-.72-.102a1.618 1.618 0 0 1-.57-.318 1.448 1.448 0 0 1-.366-.522 1.852 1.852 0 0 1-.132-.726c0-.232.06-.46.18-.684.124-.228.328-.432.612-.612.284-.184.662-.336 1.134-.456.472-.12 1.058-.188 1.758-.204v-.36c0-.412-.088-.716-.264-.912-.172-.2-.424-.3-.756-.3a1.837 1.837 0 0 0-1.02.276c-.116.068-.224.13-.324.186a.664.664 0 0 1-.33.084.429.429 0 0 1-.258-.078.614.614 0 0 1-.174-.192l-.27-.474c.708-.648 1.562-.972 2.562-.972.36 0 .68.06.96.18.284.116.524.28.72.492.196.208.344.458.444.75.104.292.156.612.156.96v3.888Zm-2.88-.924c.152 0 .292-.014.42-.042.128-.028.248-.07.36-.126.116-.056.226-.124.33-.204.108-.084.216-.182.324-.294v-1.038c-.432.02-.794.058-1.086.114-.288.052-.52.12-.696.204a.923.923 0 0 0-.378.294.664.664 0 0 0-.108.366c0 .26.076.446.228.558.156.112.358.168.606.168Z"/></svg></g><a id="title" href="https://ourworldindata.org/grapher/gdp-per-capita-maddison?tab=chart&amp;country=IDN~ARG~KOR~FRA~GBR~USA~AUT~IND~CHN" style="font-family:&#x27;Playfair Display&#x27;, Georgia, &#x27;Times New Roman&#x27;, &#x27;Liberation Serif&#x27;, serif" target="_blank" rel="noopener"><text font-size="24.75" font-weight="600" x="16.0" y="40.0" fill="#5b5b5b"><tspan x="16" y="40.0075">GDP per capita, 1 to 2022</tspan></text></a><g id="subtitle" class="markdown-text-wrap"><text x="16.0" y="63.9" style="font-size:14.625px;line-height:1.2" fill="#5b5b5b"><tspan x="16" y="63.9">This data is adjusted for inflation and for differences in the cost of living between countries.</tspan></text></g></g><g id="chart-area" style="pointer-events:none"><g id="horizontal-axis" class="HorizontalAxis"><g id="tick-marks"><line id="1" x1="70.1" y1="512.6" x2="70.1" y2="518.1" stroke="#999" stroke-width="1"></line><line id="2022" x1="702.6" y1="512.6" x2="702.6" y2="518.1" stroke="#999" stroke-width="1"></line><line id="500" x1="226.3" y1="512.6" x2="226.3" y2="518.1" stroke="#999" stroke-width="1"></line><line id="1000" x1="382.8" y1="512.6" x2="382.8" y2="518.1" stroke="#999" stroke-width="1"></line><line id="1500" x1="539.3" y1="512.6" x2="539.3" y2="518.1" stroke="#999" stroke-width="1"></line></g><g id="tick-labels"><text x="70.14" y="531.6" fill="#5b5b5b" text-anchor="start" font-size="13.5">1</text><text x="702.61" y="531.6" fill="#5b5b5b" text-anchor="end" font-size="13.5">2022</text><text x="226.3" y="531.6" fill="#5b5b5b" text-anchor="middle" font-size="13.5">500</text><text x="382.8" y="531.6" fill="#5b5b5b" text-anchor="middle" font-size="13.5">1000</text><text x="539.3" y="531.6" fill="#5b5b5b" text-anchor="middle" font-size="13.5">1500</text></g></g><g id="vertical-axis" class="VerticalAxis"><g id="tick-labels"><text x="65.14" y="513.1" dy=".32em" text-anchor="end" fill="#5b5b5b" font-size="13.5">$0</text><text x="65.14" y="440.6" dy=".32em" text-anchor="end" fill="#5b5b5b" font-size="13.5">$10,000</text><text x="65.14" y="368.2" dy=".32em" text-anchor="end" fill="#5b5b5b" font-size="13.5">$20,000</text><text x="65.14" y="295.7" dy=".32em" text-anchor="end" fill="#5b5b5b" font-size="13.5">$30,000</text><text x="65.14" y="223.2" dy=".32em" text-anchor="end" fill="#5b5b5b" font-size="13.5">$40,000</text><text x="65.14" y="150.8" dy=".32em" text-anchor="end" fill="#5b5b5b" font-size="13.5">$50,000</text></g></g><g id="horizontal-grid-lines" class="AxisGridLines horizontalLines"><line id="$0" x1="70.14" y1="513.1" x2="702.61" y2="513.1" stroke="#999" stroke-width="1"></line><line id="$10,000" x1="70.14" y1="440.6" x2="702.61" y2="440.6" stroke="#ddd" stroke-width="1" stroke-dasharray="3,2"></line><line id="$20,000" x1="70.14" y1="368.2" x2="702.61" y2="368.2" stroke="#ddd" stroke-width="1" stroke-dasharray="3,2"></line><line id="$30,000" x1="70.14" y1="295.7" x2="702.61" y2="295.7" stroke="#ddd" stroke-width="1" stroke-dasharray="3,2"></line><line id="$40,000" x1="70.14" y1="223.2" x2="702.61" y2="223.2" stroke="#ddd" stroke-width="1" stroke-dasharray="3,2"></line><line id="$50,000" x1="70.14" y1="150.8" x2="702.61" y2="150.8" stroke="#ddd" stroke-width="1" stroke-dasharray="3,2"></line></g><g id="line-labels" class="LineLabels"><g id="connectors"></g><g id="text-annotations"></g><g id="text-labels"></g><g id="connectors"><path id="United States" d="M706.61,89.3 H720.11 V90 H733.61" stroke="#999" stroke-width="0.5" fill="none"></path><path id="Austria" d="M706.61,195.7 H720.11 V195.7 H733.61" stroke="#999" stroke-width="0.5" fill="none"></path><path id="South Korea" d="M706.61,213.7 H715.61 V210.66666666666666 H733.61" stroke="#999" stroke-width="0.5" fill="none"></path><path id="France" d="M706.61,230 H724.61 V226.16666666666666 H733.61" stroke="#999" stroke-width="0.5" fill="none"></path><path id="United Kingdom" d="M706.61,234.8 H724.61 V241.66666666666666 H733.61" stroke="#999" stroke-width="0.5" fill="none"></path><path id="China" d="M706.61,373.7 H720.11 V369.35 H733.61" stroke="#999" stroke-width="0.5" fill="none"></path><path id="Argentina" d="M706.61,380.5 H720.11 V384.85 H733.61" stroke="#999" stroke-width="0.5" fill="none"></path><path id="Indonesia" d="M706.61,420.3 H720.11 V420.3 H733.61" stroke="#999" stroke-width="0.5" fill="none"></path><path id="India" d="M706.61,456.8 H720.11 V456.8 H733.61" stroke="#999" stroke-width="0.5" fill="none"></path></g><g id="text-annotations"></g><g id="text-labels"><text font-size="13.50" font-weight="400" x="737.6" y="95.0" fill="#6d3e91"><tspan x="737.61" y="94.995">United States</tspan></text><text font-size="13.50" font-weight="400" x="737.6" y="200.7" fill="#a2559c"><tspan x="737.61" y="200.695">Austria</tspan></text><text font-size="13.50" font-weight="400" x="737.6" y="215.7" fill="#9a5129"><tspan x="737.61" y="215.66166666666666">South Korea</tspan></text><text font-size="13.50" font-weight="400" x="737.6" y="231.2" fill="#4c6a9c"><tspan x="737.61" y="231.16166666666666">France</tspan></text><text font-size="13.50" font-weight="400" x="737.6" y="246.7" fill="#996d39"><tspan x="737.61" y="246.66166666666666">United Kingdom</tspan></text><text font-size="13.50" font-weight="400" x="737.6" y="374.3" fill="#b13507"><tspan x="737.61" y="374.345">China</tspan></text><text font-size="13.50" font-weight="400" x="737.6" y="389.8" fill="#883039"><tspan x="737.61" y="389.845">Argentina</tspan></text><text font-size="13.50" font-weight="400" x="737.6" y="425.3" fill="#00295b"><tspan x="737.61" y="425.295">Indonesia</tspan></text><text font-size="13.50" font-weight="400" x="737.6" y="461.8" fill="#2c8465"><tspan x="737.61" y="461.795">India</tspan></text></g></g><g id="lines"><path fill="none" stroke-linecap="butt" stroke-linejoin="round" stroke="#ffffff" stroke-width="2.5" id="outline__South Korea" d="M639.4 507.2L655 507.2L667.9 505.1L668.2 505.2L668.5 504.6L668.8 504L669.1 504L669.4 503.6L669.8 503.2L670.1 502.8L670.4 503.2L670.7 502.7L671 502.4L671.3 502.3L671.6 502.2L671.9 502.8L672.3 502.4L672.6 502L672.9 501.4L673.2 502.3L673.5 502.3L673.8 501.2L674.1 501.4L674.4 501.4L674.8 501.1L675.1 501L675.4 500.3L675.7 500.8L676 498.6L676.3 499.1L676.6 501.4L676.9 498.8L677.3 497.8L677.6 501.2L677.9 500.9L678.8 506.5L679.1 506.3L679.5 505.1L679.8 504.5L680.1 505.9L680.4 505.9L680.7 505.6L681 503.6L681.3 503.2L681.6 502.9L682 503.1L682.3 502.5L682.6 502.1L682.9 501.8L683.2 501.9L683.5 501.5L683.8 501.4L684.1 500.6L684.5 499.8L684.8 499.2L685.1 497.9L685.4 496.9L685.7 495.2L686 493.1L686.3 491.5L686.6 489.8L687 488.5L687.3 485.4L687.6 483.3L687.9 481.5L688.2 477.9L688.5 474.2L688.8 470.7L689.2 467.7L689.5 469.2L689.8 466.7L690.1 463.7L690.4 457.9L690.7 452.9L691 448.9L691.3 442.4L691.7 434.4L692 425.8L692.3 420.6L692.6 412.6L692.9 404L693.2 399.2L693.5 393.5L693.8 384.7L694.2 374.8L694.5 366.7L694.8 360.5L695.1 370.9L695.4 357L695.7 345.6L696 340.6L696.4 330.1L696.7 327L697 320L697.3 314.2L697.6 306.4L697.9 297.7L698.2 294.8L698.5 295.9L698.9 284.6L699.2 279.6L699.5 275.2L699.8 268.8L700.1 262.6L700.4 256.9L700.7 250.4L701 242.8L701.4 236.2L701.7 230.9L702 233.3L702.3 221.2L702.6 213.7"></path><path fill="none" stroke-linecap="butt" stroke-linejoin="round" stroke="#9A5129" stroke-width="1.5" id="line__South Korea" d="M639.4 507.2L655 507.2L667.9 505.1L668.2 505.2L668.5 504.6L668.8 504L669.1 504L669.4 503.6L669.8 503.2L670.1 502.8L670.4 503.2L670.7 502.7L671 502.4L671.3 502.3L671.6 502.2L671.9 502.8L672.3 502.4L672.6 502L672.9 501.4L673.2 502.3L673.5 502.3L673.8 501.2L674.1 501.4L674.4 501.4L674.8 501.1L675.1 501L675.4 500.3L675.7 500.8L676 498.6L676.3 499.1L676.6 501.4L676.9 498.8L677.3 497.8L677.6 501.2L677.9 500.9L678.8 506.5L679.1 506.3L679.5 505.1L679.8 504.5L680.1 505.9L680.4 505.9L680.7 505.6L681 503.6L681.3 503.2L681.6 502.9L682 503.1L682.3 502.5L682.6 502.1L682.9 501.8L683.2 501.9L683.5 501.5L683.8 501.4L684.1 500.6L684.5 499.8L684.8 499.2L685.1 497.9L685.4 496.9L685.7 495.2L686 493.1L686.3 491.5L686.6 489.8L687 488.5L687.3 485.4L687.6 483.3L687.9 481.5L688.2 477.9L688.5 474.2L688.8 470.7L689.2 467.7L689.5 469.2L689.8 466.7L690.1 463.7L690.4 457.9L690.7 452.9L691 448.9L691.3 442.4L691.7 434.4L692 425.8L692.3 420.6L692.6 412.6L692.9 404L693.2 399.2L693.5 393.5L693.8 384.7L694.2 374.8L694.5 366.7L694.8 360.5L695.1 370.9L695.4 357L695.7 345.6L696 340.6L696.4 330.1L696.7 327L697 320L697.3 314.2L697.6 306.4L697.9 297.7L698.2 294.8L698.5 295.9L698.9 284.6L699.2 279.6L699.5 275.2L699.8 268.8L700.1 262.6L700.4 256.9L700.7 250.4L701 242.8L701.4 236.2L701.7 230.9L702 233.3L702.3 221.2L702.6 213.7"></path><path fill="none" stroke-linecap="butt" stroke-linejoin="round" stroke="#ffffff" stroke-width="2.5" id="outline__Austria" d="M639.4 499L642.5 496.9L645.7 495.6L648.8 494L651.9 492.6L655 491.6L655.4 490.2L655.7 490.3L656 491L656.3 490.2L656.6 490.3L656.9 490L657.2 489.4L657.5 488.8L657.9 489.2L658.2 489.1L658.5 488.3L658.8 488.4L659.1 487.6L659.4 487.1L659.7 487.5L660 486.9L660.4 485.3L660.7 485.6L661 486.1L661.3 484.9L661.6 484.1L661.9 483.8L662.2 483.9L662.6 482.5L662.9 482L663.2 481.9L663.5 481.6L663.8 480.1L664.1 479.8L664.4 479.8L664.7 480L665.1 479.1L665.4 479.1L665.7 479L666 477.4L666.3 476.4L666.6 474.5L666.9 474.7L667.2 475.3L667.6 475.1L667.9 474.2L668.2 472.6L668.5 473.1L668.8 479.9L669.1 482.5L669.4 482.7L669.8 483.2L670.1 483.6L670.4 487L670.7 485.2L671 482.5L671.3 479.9L671.6 480.3L671.9 476.6L672.3 474.2L672.6 473.7L672.9 472.6L673.2 470.9L673.5 470.4L673.8 471.7L674.1 475.1L674.4 479.1L674.8 480.4L675.1 480.2L675.4 479.5L675.7 478.5L676 476.6L676.3 472L676.6 465.8L676.9 467.4L677.3 464.4L677.6 467.1L677.9 466.1L678.2 465.1L678.5 493.2L678.8 490.5L679.1 488.1L679.5 481.2L679.8 475.1L680.1 470.3L680.4 467.4L680.7 467.3L681 465.3L681.3 460.5L681.6 454.7L682 450.8L682.3 447.1L682.6 444.9L682.9 443.2L683.2 437.8L683.5 434.2L683.8 432.8L684.1 430.1L684.5 425.7L684.8 423.8L685.1 419.4L685.4 417.3L685.7 413.5L686 407.6L686.3 400.5L686.6 395.3L687 388.7L687.3 383.3L687.6 378.4L687.9 378.6L688.2 372.2L688.5 365.6L688.8 366L689.2 357.8L689.5 354.2L689.8 354.6L690.1 351.8L690.4 346.8L690.7 346.3L691 342.7L691.3 338.9L691.7 336.2L692 331.1L692.3 324.1L692.6 317.9L692.9 312.4L693.2 309.7L693.5 309.5L693.8 304.5L694.2 298.4L694.5 292.7L694.8 287.2L695.1 278.5L695.4 269.5L695.7 260.9L696 257.5L696.4 253.5L696.7 251.8L697 245.3L697.3 240.3L697.6 231.4L697.9 221L698.2 216.2L698.5 227.1L698.9 221.1L699.2 212.7L699.5 212.1L699.8 213.8L700.1 214.2L700.4 214.1L700.7 212L701 207.2L701.4 201.3L701.7 197.9L702 219.6L702.3 207.4L702.6 195.7"></path><path fill="none" stroke-linecap="butt" stroke-linejoin="round" stroke="#A2559C" stroke-width="1.5" id="line__Austria" d="M639.4 499L642.5 496.9L645.7 495.6L648.8 494L651.9 492.6L655 491.6L655.4 490.2L655.7 490.3L656 491L656.3 490.2L656.6 490.3L656.9 490L657.2 489.4L657.5 488.8L657.9 489.2L658.2 489.1L658.5 488.3L658.8 488.4L659.1 487.6L659.4 487.1L659.7 487.5L660 486.9L660.4 485.3L660.7 485.6L661 486.1L661.3 484.9L661.6 484.1L661.9 483.8L662.2 483.9L662.6 482.5L662.9 482L663.2 481.9L663.5 481.6L663.8 480.1L664.1 479.8L664.4 479.8L664.7 480L665.1 479.1L665.4 479.1L665.7 479L666 477.4L666.3 476.4L666.6 474.5L666.9 474.7L667.2 475.3L667.6 475.1L667.9 474.2L668.2 472.6L668.5 473.1L668.8 479.9L669.1 482.5L669.4 482.7L669.8 483.2L670.1 483.6L670.4 487L670.7 485.2L671 482.5L671.3 479.9L671.6 480.3L671.9 476.6L672.3 474.2L672.6 473.7L672.9 472.6L673.2 470.9L673.5 470.4L673.8 471.7L674.1 475.1L674.4 479.1L674.8 480.4L675.1 480.2L675.4 479.5L675.7 478.5L676 476.6L676.3 472L676.6 465.8L676.9 467.4L677.3 464.4L677.6 467.1L677.9 466.1L678.2 465.1L678.5 493.2L678.8 490.5L679.1 488.1L679.5 481.2L679.8 475.1L680.1 470.3L680.4 467.4L680.7 467.3L681 465.3L681.3 460.5L681.6 454.7L682 450.8L682.3 447.1L682.6 444.9L682.9 443.2L683.2 437.8L683.5 434.2L683.8 432.8L684.1 430.1L684.5 425.7L684.8 423.8L685.1 419.4L685.4 417.3L685.7 413.5L686 407.6L686.3 400.5L686.6 395.3L687 388.7L687.3 383.3L687.6 378.4L687.9 378.6L688.2 372.2L688.5 365.6L688.8 366L689.2 357.8L689.5 354.2L689.8 354.6L690.1 351.8L690.4 346.8L690.7 346.3L691 342.7L691.3 338.9L691.7 336.2L692 331.1L692.3 324.1L692.6 317.9L692.9 312.4L693.2 309.7L693.5 309.5L693.8 304.5L694.2 298.4L694.5 292.7L694.8 287.2L695.1 278.5L695.4 269.5L695.7 260.9L696 257.5L696.4 253.5L696.7 251.8L697 245.3L697.3 240.3L697.6 231.4L697.9 221L698.2 216.2L698.5 227.1L698.9 221.1L699.2 212.7L699.5 212.1L699.8 213.8L700.1 214.2L700.4 214.1L700.7 212L701 207.2L701.4 201.3L701.7 197.9L702 219.6L702.3 207.4L702.6 195.7"></path><path fill="none" stroke-linecap="butt" stroke-linejoin="round" stroke="#ffffff" stroke-width="2.5" id="outline__Indonesia" d="M637.8 507.3L638.1 506.9L638.5 506.9L638.8 507.1L639.1 507L639.4 507.1L639.7 507L640 507L640.3 507L640.6 507.3L641 507.2L641.3 506.8L641.6 506.8L641.9 506.9L642.2 507.1L642.5 507.1L642.8 507.2L643.1 507.2L643.5 507L643.8 506.8L644.1 507L644.4 507.2L644.7 506.9L645 506.9L645.3 507L645.7 506.7L646 506.7L646.3 506.7L646.6 506.9L646.9 507.1L647.2 507.4L647.5 507.6L647.8 507.7L648.2 507.5L648.5 507.7L648.8 507.9L649.1 507.7L649.4 507.9L649.7 507.7L650 507.9L650.3 507.7L650.7 507.3L651 507.6L651.3 507.2L651.6 507.2L651.9 507.2L652.2 507.1L652.5 507.5L652.9 507.5L653.2 507.6L653.5 507.4L653.8 507.3L654.1 507.1L654.4 507.3L654.7 507.4L655 507.2L655.4 507.2L655.7 507.1L656 507.2L656.3 507.3L656.6 507.1L656.9 507.1L657.2 507L657.5 506.8L657.9 506.9L658.2 505.6L658.5 505.2L658.8 505.5L659.1 505.6L659.4 505.1L659.7 505.1L660 505.2L660.4 505.2L660.7 505.3L661 505.3L661.3 505.6L661.6 505.5L661.9 505.3L662.2 505.1L662.6 505.1L662.9 505.2L663.2 505.2L663.5 505.2L663.8 505.2L664.1 504.9L664.4 504.8L664.7 505L665.1 505.2L665.4 504.9L665.7 504.9L666 504.8L666.3 504.7L666.6 504.6L666.9 504.7L667.2 504.4L667.6 503.9L667.9 503.6L668.2 503.6L668.5 503.2L668.8 503.4L669.1 503.3L669.4 503.4L669.8 503.4L670.1 503.3L670.4 502.5L670.7 502.9L671 503L671.3 502.8L671.6 502.8L671.9 502.3L672.3 502.3L672.6 501.8L672.9 501.2L673.2 500.9L673.5 500.8L673.8 500.8L674.1 501.7L674.4 502.4L674.8 502.4L675.1 502.5L675.4 502.4L675.7 501.9L676 500.8L676.3 501.1L676.6 501.2L676.9 500.3L677.3 500L679.8 504.7L680.1 503.8L680.4 503.3L680.7 502.9L681 502.6L681.3 502.1L681.6 502L682 502L682.3 501.4L682.6 502L682.9 501.7L683.2 501.4L683.5 500.9L683.8 501.1L684.1 501.8L684.5 501.6L684.8 501.7L685.1 502L685.4 502.4L685.7 501.6L686 500.5L686.3 499.5L686.6 499L687 497.8L687.3 495.9L687.6 495.4L687.9 495.8L688.2 494.7L688.5 493.8L688.8 493.3L689.2 492.7L689.5 491.5L689.8 490.5L690.1 491.8L690.4 491.4L690.7 490.4L691 490.3L691.3 489.4L691.7 488.7L692 487.7L692.3 485.9L692.6 484.1L692.9 481.9L693.2 480.2L693.5 478L693.8 475.9L694.2 473.3L694.5 470.7L694.8 469.2L695.1 475.4L695.4 475.5L695.7 474.1L696 473.1L696.4 471.6L696.7 470.1L697 468.3L697.3 466.1L697.6 463.9L697.9 461.2L698.2 457.8L698.5 455.6L698.9 452.3L699.2 449L699.5 445.9L699.8 443L700.1 440.3L700.4 437.5L700.7 434.5L701 431.3L701.4 427.8L701.7 424.3L702 426.9L702.3 424.4L702.6 420.3"></path><path fill="none" stroke-linecap="butt" stroke-linejoin="round" stroke="#00295B" stroke-width="1.5" id="line__Indonesia" d="M637.8 507.3L638.1 506.9L638.5 506.9L638.8 507.1L639.1 507L639.4 507.1L639.7 507L640 507L640.3 507L640.6 507.3L641 507.2L641.3 506.8L641.6 506.8L641.9 506.9L642.2 507.1L642.5 507.1L642.8 507.2L643.1 507.2L643.5 507L643.8 506.8L644.1 507L644.4 507.2L644.7 506.9L645 506.9L645.3 507L645.7 506.7L646 506.7L646.3 506.7L646.6 506.9L646.9 507.1L647.2 507.4L647.5 507.6L647.8 507.7L648.2 507.5L648.5 507.7L648.8 507.9L649.1 507.7L649.4 507.9L649.7 507.7L650 507.9L650.3 507.7L650.7 507.3L651 507.6L651.3 507.2L651.6 507.2L651.9 507.2L652.2 507.1L652.5 507.5L652.9 507.5L653.2 507.6L653.5 507.4L653.8 507.3L654.1 507.1L654.4 507.3L654.7 507.4L655 507.2L655.4 507.2L655.7 507.1L656 507.2L656.3 507.3L656.6 507.1L656.9 507.1L657.2 507L657.5 506.8L657.9 506.9L658.2 505.6L658.5 505.2L658.8 505.5L659.1 505.6L659.4 505.1L659.7 505.1L660 505.2L660.4 505.2L660.7 505.3L661 505.3L661.3 505.6L661.6 505.5L661.9 505.3L662.2 505.1L662.6 505.1L662.9 505.2L663.2 505.2L663.5 505.2L663.8 505.2L664.1 504.9L664.4 504.8L664.7 505L665.1 505.2L665.4 504.9L665.7 504.9L666 504.8L666.3 504.7L666.6 504.6L666.9 504.7L667.2 504.4L667.6 503.9L667.9 503.6L668.2 503.6L668.5 503.2L668.8 503.4L669.1 503.3L669.4 503.4L669.8 503.4L670.1 503.3L670.4 502.5L670.7 502.9L671 503L671.3 502.8L671.6 502.8L671.9 502.3L672.3 502.3L672.6 501.8L672.9 501.2L673.2 500.9L673.5 500.8L673.8 500.8L674.1 501.7L674.4 502.4L674.8 502.4L675.1 502.5L675.4 502.4L675.7 501.9L676 500.8L676.3 501.1L676.6 501.2L676.9 500.3L677.3 500L679.8 504.7L680.1 503.8L680.4 503.3L680.7 502.9L681 502.6L681.3 502.1L681.6 502L682 502L682.3 501.4L682.6 502L682.9 501.7L683.2 501.4L683.5 500.9L683.8 501.1L684.1 501.8L684.5 501.6L684.8 501.7L685.1 502L685.4 502.4L685.7 501.6L686 500.5L686.3 499.5L686.6 499L687 497.8L687.3 495.9L687.6 495.4L687.9 495.8L688.2 494.7L688.5 493.8L688.8 493.3L689.2 492.7L689.5 491.5L689.8 490.5L690.1 491.8L690.4 491.4L690.7 490.4L691 490.3L691.3 489.4L691.7 488.7L692 487.7L692.3 485.9L692.6 484.1L692.9 481.9L693.2 480.2L693.5 478L693.8 475.9L694.2 473.3L694.5 470.7L694.8 469.2L695.1 475.4L695.4 475.5L695.7 474.1L696 473.1L696.4 471.6L696.7 470.1L697 468.3L697.3 466.1L697.6 463.9L697.9 461.2L698.2 457.8L698.5 455.6L698.9 452.3L699.2 449L699.5 445.9L699.8 443L700.1 440.3L700.4 437.5L700.7 434.5L701 431.3L701.4 427.8L701.7 424.3L702 426.9L702.3 424.4L702.6 420.3"></path><path fill="none" stroke-linecap="butt" stroke-linejoin="round" stroke="#ffffff" stroke-width="2.5" id="outline__Argentina" d="M633.1 502.3L639.4 501.6L648.8 498.6L651.9 497.4L655 496.1L656.6 494.2L656.9 494.2L657.2 492.7L657.5 494.1L657.9 493.8L658.2 494.6L658.5 494.7L658.8 490.6L659.1 488.7L659.4 487.8L659.7 484.8L660 485.8L660.4 485.3L660.7 482.5L661 482L661.3 485.2L661.6 486.8L661.9 482.3L662.2 481.1L662.6 477.1L662.9 474.1L663.2 471.7L663.5 480.5L663.8 478.7L664.1 473.9L664.4 479.9L664.7 479.8L665.1 481.7L665.4 478.5L665.7 476.2L666 472.9L666.3 472.5L666.6 473.1L666.9 470.9L667.2 470.4L667.6 469L667.9 469.8L668.2 468L668.5 469.2L668.8 475L669.1 475.6L669.4 477.4L669.8 480.9L670.1 475.6L670.4 474.9L670.7 473L671 473L671.3 471.1L671.6 468.1L671.9 466.3L672.3 467.8L672.6 467L672.9 465.1L673.2 463.5L673.5 462.7L673.8 466L674.1 470.2L674.4 472.4L674.8 471.3L675.1 468.7L675.4 467.5L675.7 467.9L676 465.5L676.3 466.1L676.6 465.2L676.9 465L677.3 463.4L677.6 463.6L677.9 464.8L678.2 460.2L678.5 462.8L678.8 459.2L679.1 454.3L679.5 452.4L679.8 454.8L680.1 455.5L680.4 454.5L680.7 458.6L681 456.8L681.3 455.6L681.6 452.6L682 452.1L682.3 450L682.6 447.3L682.9 452.6L683.2 448.9L683.5 445.4L683.8 447.5L684.1 450.1L684.5 444.6L684.8 439.5L685.1 440.1L685.4 439.2L685.7 437.1L686 431.8L686.3 428.8L686.6 426.1L687 424.9L687.3 421.1L687.6 416.8L687.9 419.3L688.2 421.1L688.5 417.2L688.8 422.9L689.2 418.1L689.5 418.3L689.8 425.2L690.1 429.4L690.4 427.8L690.7 427.3L691 434.1L691.3 429.7L691.7 428.8L692 431.6L692.3 437.8L692.6 438.8L692.9 431.8L693.2 424.2L693.5 419.4L693.8 414.8L694.2 418.3L694.5 413.7L694.8 406.4L695.1 403L695.4 407.5L695.7 409L696 414.2L696.4 425.5L696.7 418.2L697 410.3L697.3 401.9L697.6 393.6L697.9 383.4L698.2 378.9L698.5 387.5L698.9 375.6L699.2 368.1L699.5 371.3L699.8 369.5L700.1 374.6L700.4 372.3L700.7 376.7L701 374.3L701.4 379.3L701.7 383.3L702 397.3L702.3 386.5L702.6 380.5"></path><path fill="none" stroke-linecap="butt" stroke-linejoin="round" stroke="#883039" stroke-width="1.5" id="line__Argentina" d="M633.1 502.3L639.4 501.6L648.8 498.6L651.9 497.4L655 496.1L656.6 494.2L656.9 494.2L657.2 492.7L657.5 494.1L657.9 493.8L658.2 494.6L658.5 494.7L658.8 490.6L659.1 488.7L659.4 487.8L659.7 484.8L660 485.8L660.4 485.3L660.7 482.5L661 482L661.3 485.2L661.6 486.8L661.9 482.3L662.2 481.1L662.6 477.1L662.9 474.1L663.2 471.7L663.5 480.5L663.8 478.7L664.1 473.9L664.4 479.9L664.7 479.8L665.1 481.7L665.4 478.5L665.7 476.2L666 472.9L666.3 472.5L666.6 473.1L666.9 470.9L667.2 470.4L667.6 469L667.9 469.8L668.2 468L668.5 469.2L668.8 475L669.1 475.6L669.4 477.4L669.8 480.9L670.1 475.6L670.4 474.9L670.7 473L671 473L671.3 471.1L671.6 468.1L671.9 466.3L672.3 467.8L672.6 467L672.9 465.1L673.2 463.5L673.5 462.7L673.8 466L674.1 470.2L674.4 472.4L674.8 471.3L675.1 468.7L675.4 467.5L675.7 467.9L676 465.5L676.3 466.1L676.6 465.2L676.9 465L677.3 463.4L677.6 463.6L677.9 464.8L678.2 460.2L678.5 462.8L678.8 459.2L679.1 454.3L679.5 452.4L679.8 454.8L680.1 455.5L680.4 454.5L680.7 458.6L681 456.8L681.3 455.6L681.6 452.6L682 452.1L682.3 450L682.6 447.3L682.9 452.6L683.2 448.9L683.5 445.4L683.8 447.5L684.1 450.1L684.5 444.6L684.8 439.5L685.1 440.1L685.4 439.2L685.7 437.1L686 431.8L686.3 428.8L686.6 426.1L687 424.9L687.3 421.1L687.6 416.8L687.9 419.3L688.2 421.1L688.5 417.2L688.8 422.9L689.2 418.1L689.5 418.3L689.8 425.2L690.1 429.4L690.4 427.8L690.7 427.3L691 434.1L691.3 429.7L691.7 428.8L692 431.6L692.3 437.8L692.6 438.8L692.9 431.8L693.2 424.2L693.5 419.4L693.8 414.8L694.2 418.3L694.5 413.7L694.8 406.4L695.1 403L695.4 407.5L695.7 409L696 414.2L696.4 425.5L696.7 418.2L697 410.3L697.3 401.9L697.6 393.6L697.9 383.4L698.2 378.9L698.5 387.5L698.9 375.6L699.2 368.1L699.5 371.3L699.8 369.5L700.1 374.6L700.4 372.3L700.7 376.7L701 374.3L701.4 379.3L701.7 383.3L702 397.3L702.3 386.5L702.6 380.5"></path><path fill="none" stroke-linecap="butt" stroke-linejoin="round" stroke="#ffffff" stroke-width="2.5" id="outline__United States" d="M586.2 506.6L608.1 500.3L625.3 495.6L633.1 494.7L633.4 494.3L633.8 494L634.1 494.3L634.4 494.3L634.7 493.9L635 493.6L635.3 493.4L635.6 494.8L636 493.9L636.3 493.3L636.6 492.9L636.9 493.3L637.2 493.1L637.5 492.7L637.8 492.8L638.1 493.6L638.5 493.6L638.8 493.6L639.1 493.6L639.4 493.7L639.7 493.4L640 492.9L640.3 493.1L640.6 492.5L641 492.1L641.3 492L641.6 491.9L641.9 491.9L642.2 492.6L642.5 491.1L642.8 489.7L643.1 488.9L643.5 488L643.8 489.2L644.1 488.3L644.4 488L644.7 488.7L645 489L645.3 487.8L645.7 489L646 489.5L646.3 489.7L646.6 489.4L646.9 488.1L647.2 487.7L647.5 487.5L647.8 486.9L648.2 486.2L648.5 486.9L648.8 486.8L649.1 485.7L649.4 484.3L649.7 482.4L650 482.3L650.3 482.9L650.7 482.3L651 483L651.3 482.8L651.6 482L651.9 481.2L652.2 481.9L652.5 480.9L652.9 478.8L653.2 477.7L653.5 479.5L653.8 479.8L654.1 478.7L654.4 478.2L654.7 477.3L655 478.3L655.4 477.5L655.7 476.9L656 476L656.3 477.1L656.6 476.1L656.9 476.5L657.2 476.2L657.5 475.4L657.9 471.7L658.2 467.8L658.5 467.3L658.8 465.6L659.1 465.6L659.4 465.8L659.7 466.5L660 466.2L660.4 465.1L660.7 466.4L661 464.5L661.3 464.8L661.6 463.7L661.9 460L662.2 463.6L662.6 465.9L662.9 461.2L663.2 463.2L663.5 459.4L663.8 459.3L664.1 455.4L664.4 454.9L664.7 449.5L665.1 450.2L665.4 448.3L665.7 450.3L666 447L666.3 440.8L666.6 441L666.9 448.1L667.2 442.1L667.6 443.3L667.9 442.5L668.2 440.8L668.5 439.8L668.8 447.2L669.1 446.7L669.4 439L669.8 442.3L670.1 437.2L670.4 437.4L670.7 439.5L671 443L671.3 440.6L671.6 432.9L671.9 432.5L672.3 432.3L672.6 428.7L672.9 429.5L673.2 430.1L673.5 426.5L673.8 435.6L674.1 441.1L674.4 452.4L674.8 454.8L675.1 450.3L675.4 442.9L675.7 436.5L676 431.2L676.3 436.8L676.6 432.1L676.9 426.1L677.3 414.9L677.6 405.3L677.9 396.8L678.2 389.9L678.5 393.7L678.8 405.7L679.1 409.4L679.5 406.3L679.8 410.2L680.1 402.7L680.4 396.2L680.7 393.9L681 390.5L681.3 393.4L681.6 387.2L682 387L682.3 387L682.6 390.3L682.9 383.4L683.2 382.2L683.5 381.4L683.8 375.6L684.1 371.7L684.5 365.6L684.8 358.1L685.1 349.8L685.4 347.6L685.7 341.4L686 337.8L686.3 339.5L686.6 336.3L687 328.9L687.3 320.3L687.6 322.6L687.9 325L688.2 317L688.5 310.2L688.8 300.9L689.2 296.1L689.5 298.5L689.8 295.3L690.1 301.4L690.4 294.5L690.7 280.6L691 273.8L691.3 267.8L691.7 261.4L692 253.2L692.3 246.7L692.6 245.1L692.9 248.9L693.2 243.2L693.5 239.4L693.8 231.9L694.2 227.6L694.5 220.2L694.8 210.7L695.1 201L695.4 190.1L695.7 180.6L696 180.6L696.4 177.8L696.7 171.4L697 161.7L697.3 153.3L697.6 147.2L697.9 144.2L698.2 148.8L698.5 162L698.9 156.1L699.2 153.1L699.5 147.6L699.8 143.4L700.1 137.7L700.4 130.4L700.7 126.8L701 120.7L701.4 111.2L701.7 103.9L702 119L702.3 96.2L702.6 89.3"></path><path fill="none" stroke-linecap="butt" stroke-linejoin="round" stroke="#6D3E91" stroke-width="1.5" id="line__United States" d="M586.2 506.6L608.1 500.3L625.3 495.6L633.1 494.7L633.4 494.3L633.8 494L634.1 494.3L634.4 494.3L634.7 493.9L635 493.6L635.3 493.4L635.6 494.8L636 493.9L636.3 493.3L636.6 492.9L636.9 493.3L637.2 493.1L637.5 492.7L637.8 492.8L638.1 493.6L638.5 493.6L638.8 493.6L639.1 493.6L639.4 493.7L639.7 493.4L640 492.9L640.3 493.1L640.6 492.5L641 492.1L641.3 492L641.6 491.9L641.9 491.9L642.2 492.6L642.5 491.1L642.8 489.7L643.1 488.9L643.5 488L643.8 489.2L644.1 488.3L644.4 488L644.7 488.7L645 489L645.3 487.8L645.7 489L646 489.5L646.3 489.7L646.6 489.4L646.9 488.1L647.2 487.7L647.5 487.5L647.8 486.9L648.2 486.2L648.5 486.9L648.8 486.8L649.1 485.7L649.4 484.3L649.7 482.4L650 482.3L650.3 482.9L650.7 482.3L651 483L651.3 482.8L651.6 482L651.9 481.2L652.2 481.9L652.5 480.9L652.9 478.8L653.2 477.7L653.5 479.5L653.8 479.8L654.1 478.7L654.4 478.2L654.7 477.3L655 478.3L655.4 477.5L655.7 476.9L656 476L656.3 477.1L656.6 476.1L656.9 476.5L657.2 476.2L657.5 475.4L657.9 471.7L658.2 467.8L658.5 467.3L658.8 465.6L659.1 465.6L659.4 465.8L659.7 466.5L660 466.2L660.4 465.1L660.7 466.4L661 464.5L661.3 464.8L661.6 463.7L661.9 460L662.2 463.6L662.6 465.9L662.9 461.2L663.2 463.2L663.5 459.4L663.8 459.3L664.1 455.4L664.4 454.9L664.7 449.5L665.1 450.2L665.4 448.3L665.7 450.3L666 447L666.3 440.8L666.6 441L666.9 448.1L667.2 442.1L667.6 443.3L667.9 442.5L668.2 440.8L668.5 439.8L668.8 447.2L669.1 446.7L669.4 439L669.8 442.3L670.1 437.2L670.4 437.4L670.7 439.5L671 443L671.3 440.6L671.6 432.9L671.9 432.5L672.3 432.3L672.6 428.7L672.9 429.5L673.2 430.1L673.5 426.5L673.8 435.6L674.1 441.1L674.4 452.4L674.8 454.8L675.1 450.3L675.4 442.9L675.7 436.5L676 431.2L676.3 436.8L676.6 432.1L676.9 426.1L677.3 414.9L677.6 405.3L677.9 396.8L678.2 389.9L678.5 393.7L678.8 405.7L679.1 409.4L679.5 406.3L679.8 410.2L680.1 402.7L680.4 396.2L680.7 393.9L681 390.5L681.3 393.4L681.6 387.2L682 387L682.3 387L682.6 390.3L682.9 383.4L683.2 382.2L683.5 381.4L683.8 375.6L684.1 371.7L684.5 365.6L684.8 358.1L685.1 349.8L685.4 347.6L685.7 341.4L686 337.8L686.3 339.5L686.6 336.3L687 328.9L687.3 320.3L687.6 322.6L687.9 325L688.2 317L688.5 310.2L688.8 300.9L689.2 296.1L689.5 298.5L689.8 295.3L690.1 301.4L690.4 294.5L690.7 280.6L691 273.8L691.3 267.8L691.7 261.4L692 253.2L692.3 246.7L692.6 245.1L692.9 248.9L693.2 243.2L693.5 239.4L693.8 231.9L694.2 227.6L694.5 220.2L694.8 210.7L695.1 201L695.4 190.1L695.7 180.6L696 180.6L696.4 177.8L696.7 171.4L697 161.7L697.3 153.3L697.6 147.2L697.9 144.2L698.2 148.8L698.5 162L698.9 156.1L699.2 153.1L699.5 147.6L699.8 143.4L700.1 137.7L700.4 130.4L700.7 126.8L701 120.7L701.4 111.2L701.7 103.9L702 119L702.3 96.2L702.6 89.3"></path><path fill="none" stroke-linecap="butt" stroke-linejoin="round" stroke="#ffffff" stroke-width="2.5" id="outline__India" d="M570.5 503.9L586.2 504.5L601.8 504.7L617.5 505.4L633.4 505.6L636.6 506L639.7 506.3L642.8 506.3L646 506.3L648.8 506.2L649.1 506.2L652.2 506.6L655 506.9L659.4 506.7L659.7 506.5L660 506.8L660.4 506.5L660.7 506.4L661 506.6L661.3 506.4L661.6 507L661.9 506.5L662.2 506.4L662.6 506.3L662.9 506.4L663.2 506.9L663.5 505.8L663.8 505.8L664.1 506.4L664.4 506.2L664.7 506.1L665.1 505.5L665.4 505.5L665.7 505.5L666 505.7L666.3 505.5L666.6 506L666.9 505.9L667.2 505L667.6 505L667.9 505.1L668.2 505.1L668.5 505.3L668.8 504.9L669.1 505.1L669.4 504.9L669.8 505L670.1 506.1L670.4 505.1L670.7 505.8L671 505.3L671.3 505L671.6 505.3L671.9 505L672.3 505L672.6 504.9L672.9 504.9L673.2 504.9L673.5 504.7L673.8 504.7L674.1 504.9L674.4 504.9L674.8 505L675.1 505L675.4 505.2L675.7 505L676 505.3L676.3 505.4L676.6 505.3L676.9 505.2L677.3 505.1L677.6 505.3L677.9 505L678.2 505.2L678.5 505.4L678.8 505.9L679.1 506L679.5 506L679.8 505.9L680.1 505.9L680.4 505.9L680.7 505.8L681 505.5L681.3 505.3L681.6 505.3L682 505L682.3 505.2L682.6 504.8L682.9 504.8L683.2 504.4L683.5 504.3L683.8 504.3L684.1 504.1L684.5 503.6L684.8 504.2L685.1 504.3L685.4 503.8L685.7 503.8L686 503.3L686.3 503.1L686.6 503.2L687 503.5L687.3 503.2L687.6 503.4L687.9 502.7L688.2 502.8L688.5 502.3L688.8 501.9L689.2 502.8L689.5 502.3L689.8 501.8L690.1 501.7L690.4 501L690.7 500.9L691 500.6L691.3 500.4L691.7 500.1L692 499.1L692.3 498.4L692.6 498L692.9 498.2L693.2 497.8L693.5 497.3L693.8 496.8L694.2 496L694.5 495.2L694.8 494.9L695.1 494.2L695.4 493.5L695.7 493.1L696 492.5L696.4 492.3L696.7 491.1L697 489.8L697.3 488.5L697.6 486.8L697.9 485L698.2 483.9L698.5 482.2L698.9 480.3L699.2 478.5L699.5 477L699.8 475.2L700.1 473.1L700.4 470.6L700.7 467.3L701 465L701.4 462L701.7 460.2L702 464.3L702.3 460.1L702.6 456.8"></path><path fill="none" stroke-linecap="butt" stroke-linejoin="round" stroke="#2C8465" stroke-width="1.5" id="line__India" d="M570.5 503.9L586.2 504.5L601.8 504.7L617.5 505.4L633.4 505.6L636.6 506L639.7 506.3L642.8 506.3L646 506.3L648.8 506.2L649.1 506.2L652.2 506.6L655 506.9L659.4 506.7L659.7 506.5L660 506.8L660.4 506.5L660.7 506.4L661 506.6L661.3 506.4L661.6 507L661.9 506.5L662.2 506.4L662.6 506.3L662.9 506.4L663.2 506.9L663.5 505.8L663.8 505.8L664.1 506.4L664.4 506.2L664.7 506.1L665.1 505.5L665.4 505.5L665.7 505.5L666 505.7L666.3 505.5L666.6 506L666.9 505.9L667.2 505L667.6 505L667.9 505.1L668.2 505.1L668.5 505.3L668.8 504.9L669.1 505.1L669.4 504.9L669.8 505L670.1 506.1L670.4 505.1L670.7 505.8L671 505.3L671.3 505L671.6 505.3L671.9 505L672.3 505L672.6 504.9L672.9 504.9L673.2 504.9L673.5 504.7L673.8 504.7L674.1 504.9L674.4 504.9L674.8 505L675.1 505L675.4 505.2L675.7 505L676 505.3L676.3 505.4L676.6 505.3L676.9 505.2L677.3 505.1L677.6 505.3L677.9 505L678.2 505.2L678.5 505.4L678.8 505.9L679.1 506L679.5 506L679.8 505.9L680.1 505.9L680.4 505.9L680.7 505.8L681 505.5L681.3 505.3L681.6 505.3L682 505L682.3 505.2L682.6 504.8L682.9 504.8L683.2 504.4L683.5 504.3L683.8 504.3L684.1 504.1L684.5 503.6L684.8 504.2L685.1 504.3L685.4 503.8L685.7 503.8L686 503.3L686.3 503.1L686.6 503.2L687 503.5L687.3 503.2L687.6 503.4L687.9 502.7L688.2 502.8L688.5 502.3L688.8 501.9L689.2 502.8L689.5 502.3L689.8 501.8L690.1 501.7L690.4 501L690.7 500.9L691 500.6L691.3 500.4L691.7 500.1L692 499.1L692.3 498.4L692.6 498L692.9 498.2L693.2 497.8L693.5 497.3L693.8 496.8L694.2 496L694.5 495.2L694.8 494.9L695.1 494.2L695.4 493.5L695.7 493.1L696 492.5L696.4 492.3L696.7 491.1L697 489.8L697.3 488.5L697.6 486.8L697.9 485L698.2 483.9L698.5 482.2L698.9 480.3L699.2 478.5L699.5 477L699.8 475.2L700.1 473.1L700.4 470.6L700.7 467.3L701 465L701.4 462L701.7 460.2L702 464.3L702.3 460.1L702.6 456.8"></path><path fill="none" stroke-linecap="butt" stroke-linejoin="round" stroke="#ffffff" stroke-width="2.5" id="outline__United Kingdom" d="M382.8 504.8L461.6 503.5L462 503.5L462.3 503.6L462.6 503.8L462.9 504L463.2 504.1L463.5 502.8L463.8 504.5L464.1 503.7L464.5 503.8L464.8 504.3L465.1 504.4L465.4 504.5L465.7 504.5L466 502.9L466.3 503.6L466.6 504.3L467 504.2L467.3 504.5L467.6 504.6L467.9 504.3L468.2 504.8L468.5 504.8L468.8 503.7L469.2 504.8L469.5 504.2L469.8 503.9L470.1 505.5L470.4 505.4L470.7 505L471 505.3L471.3 505.7L471.7 505.5L472 505.5L472.3 505.6L472.6 504.9L472.9 505.2L473.2 505.9L473.5 505.8L473.8 505.8L474.2 505.4L474.5 505.2L474.8 505.3L475.1 504.7L475.4 504.4L475.7 504.8L476 504.3L476.3 504.6L476.7 504.7L477 504.6L477.3 504.4L477.6 504L477.9 504.9L478.2 504.7L478.5 504.9L478.9 504.5L479.2 504.4L479.5 504.2L479.8 504.3L480.1 504L480.4 504.2L480.7 504.1L481 504.1L481.4 505L481.7 505.3L482 504.9L482.3 503.9L482.6 503.7L482.9 503.9L483.2 505.2L483.5 504.7L483.9 504.3L484.2 505L484.5 504.2L484.8 504.1L485.1 504.2L485.4 504.9L485.7 504.5L486 504.7L486.4 505.1L486.7 504.7L487 504.4L487.3 504.7L487.6 505.1L487.9 504.7L488.2 503.8L488.6 503.6L488.9 505.4L489.2 504.4L489.5 504.4L489.8 504L490.1 504.2L490.4 503.6L490.7 504.3L491.1 504.7L491.4 504.4L491.7 504.2L492 504.7L492.3 503.6L492.6 502.1L492.9 501.7L493.2 501.7L493.6 502.1L493.9 501.8L494.2 502L494.5 501.7L494.8 501.7L495.1 501.6L495.4 501.6L495.8 502L496.1 502.3L496.4 502.6L496.7 501.5L497 502L497.3 501.7L497.6 502.4L497.9 502.4L498.3 503.2L498.6 501.9L498.9 502.3L499.2 503.3L499.5 502.5L499.8 503.4L500.1 503.7L500.4 502.3L500.8 501.9L501.1 502.1L501.4 503L501.7 502.5L502 502.2L502.3 501.8L502.6 502.3L502.9 500.9L503.3 502L503.6 500.7L503.9 500.6L504.2 501.5L504.5 501.1L504.8 501.8L505.1 500.5L505.5 498.8L505.8 501.3L506.1 500.1L506.4 500.6L506.7 500.5L507 500.7L507.3 499.8L507.6 500.3L508 500.7L508.3 500.8L508.6 500.5L508.9 500.3L509.2 500L509.5 500L509.8 501L510.1 500.9L510.5 501.9L510.8 501.5L511.1 500.7L511.4 501L511.7 501.3L512 502.4L512.3 500.9L512.6 500.6L513 501L513.3 499.9L513.6 500.6L513.9 499.9L514.2 500.2L514.5 501.1L514.8 500.7L515.2 500L515.5 499.9L515.8 500.3L516.1 500.7L516.4 501L516.7 501.7L517 501.3L517.3 501L517.7 500.9L518 501L518.3 500.7L518.6 499.9L518.9 501.3L519.2 502.1L519.5 502.5L519.8 502L520.2 501.5L520.5 501.3L520.8 502.7L521.1 502.3L521.4 500L521.7 500L522 501.8L522.4 501L522.7 500.7L523 500.3L523.3 501.3L523.6 500.9L523.9 500.9L524.2 501L524.5 501L524.9 500.9L525.2 501L525.5 500.9L525.8 502L526.1 501.3L526.4 501.5L526.7 501.5L527 501.5L527.4 500.4L527.7 500.3L528 501.4L528.3 501.7L528.6 501.8L528.9 501.5L529.2 501L529.5 501.2L529.9 501.5L530.2 502L530.5 501.7L530.8 501.8L531.1 501.2L531.4 501.6L531.7 502.4L532.1 501.9L532.4 501.6L532.7 501L533 500.6L533.3 501.2L533.6 501.8L533.9 501.2L534.2 501.3L534.6 502L534.9 500.8L535.2 501.9L535.5 501.7L535.8 501.4L536.1 501.4L536.4 501.3L536.7 501.1L537.1 501.4L537.4 500.8L537.7 501.1L538 501.5L538.3 500.7L538.6 500.6L538.9 500.6L539.3 500.8L539.6 501.3L539.9 500.9L540.2 500.4L540.5 500.4L540.8 500.3L541.1 500.2L541.4 500.5L541.8 500.3L542.1 499.8L542.4 500.3L542.7 500.1L543 500.7L543.3 500.2L543.6 500.2L543.9 499.9L544.3 500.1L544.6 500.1L544.9 500L545.2 500.2L545.5 500.4L545.8 500.1L546.1 499.9L546.4 499.7L546.8 499.6L547.1 499.7L547.4 499.7L547.7 500.7L548 500.6L548.3 500.5L548.6 500.4L549 500.9L549.3 500.5L549.6 500.6L549.9 500.1L550.2 501L550.5 501.2L550.8 500.4L551.1 501.1L551.5 500.2L551.8 500.7L552.1 501.1L552.4 500.7L552.7 501.1L553 500.5L553.3 500.9L553.6 500.7L554 499.8L554.3 500.4L554.6 500.9L554.9 501.1L555.2 501.5L555.5 502L555.8 500.2L556.1 501.4L556.5 501.5L556.8 503.7L557.1 502.8L557.4 499.7L557.7 500.5L558 500.4L558.3 500.2L558.7 500.3L559 499.2L559.3 499.7L559.6 499.8L559.9 498.2L560.2 499.2L560.5 499.3L560.8 499.4L561.2 500.5L561.5 500.5L561.8 501L562.1 499.2L562.4 500.9L562.7 499.5L563 499.1L563.3 501.3L563.7 499.7L564 499.9L564.3 500.7L564.6 501.1L564.9 502.4L565.2 501.1L565.5 501.5L565.9 503L566.2 503.3L566.5 502.2L566.8 500.9L567.1 502.4L567.4 501.8L567.7 501.7L568 500.8L568.4 500.1L568.7 502.6L569 502.6L569.3 503.1L569.6 503.6L569.9 501.7L570.2 500.1L570.5 500.8L570.9 501L571.2 500.4L571.5 499.7L571.8 498.8L572.1 500.4L572.4 499.8L572.7 501.1L573 501.7L573.4 500L573.7 499.2L574 500.4L574.3 501L574.6 501.4L574.9 501.8L575.2 500.9L575.6 501.6L575.9 500.4L576.2 500.5L576.5 501.6L576.8 499.8L577.1 499.8L577.4 501.6L577.7 501.7L578.1 500.2L578.4 500.1L578.7 500.6L579 500.5L579.3 499L579.6 502.7L579.9 502.8L580.2 502.6L580.6 501.3L580.9 502.2L581.2 502.1L581.5 501.7L581.8 502L582.1 502.4L582.4 501.3L582.8 501.2L583.1 500.9L583.4 502.2L583.7 501.3L584 500.6L584.3 500.5L584.6 502.2L584.9 502.1L585.3 502.1L585.6 502L585.9 502.2L586.2 502.6L586.5 502L586.8 500.6L587.1 499.2L587.4 499.3L587.8 498.7L588.1 499.8L588.4 500.6L588.7 500.8L589 502.7L589.3 501.7L589.6 501.4L589.9 501L590.3 498.9L590.6 499.9L590.9 499.3L591.2 497.6L591.5 497.2L591.8 499L592.1 498.7L592.5 499.1L592.8 499.5L593.1 499.6L593.4 499.4L593.7 500L594 499.7L594.3 497.2L594.6 498.4L595 497.9L595.3 498.9L595.6 497.1L595.9 498.6L596.2 497.5L596.5 496.3L596.8 499L597.1 497.8L597.5 499L597.8 497.4L598.1 496.2L598.4 496.9L598.7 495.8L599 495.7L599.3 494.3L599.6 497.2L600 494.1L600.3 495L600.6 495.8L600.9 496L601.2 495.6L601.5 496.3L601.8 495.6L602.2 494.2L602.5 494.8L602.8 496.1L603.1 493L603.4 494L603.7 497L604 495.1L604.3 494L604.7 496.6L605 498.1L605.3 496.8L605.6 496.7L605.9 497.5L606.2 496L606.5 496.5L606.8 495.9L607.2 495.1L607.5 494.2L607.8 494.7L608.1 493.4L608.4 494.2L608.7 494L609 494.5L609.4 494.8L609.7 494.4L610 495.1L610.3 495.3L610.6 494.6L610.9 495.3L611.2 494.7L611.5 495L611.9 493.9L612.2 493.5L612.5 493.8L612.8 494.4L613.1 493.2L613.4 494.4L613.7 494.1L614 494.4L614.4 494.8L614.7 494.3L615 493.7L615.3 494.1L615.6 494.5L615.9 494.4L616.2 494L616.5 493.2L616.9 493.4L617.2 493.7L617.5 493.5L617.8 494.1L618.1 493.3L618.4 493.2L618.7 493.9L619.1 493.5L619.4 493.9L619.7 492.9L620 492.7L620.3 492.4L620.6 492L620.9 491.3L621.2 492L621.6 492L621.9 492.1L622.2 492.4L622.5 492.2L622.8 492.1L623.1 492L623.4 491L623.7 491.7L624.1 491.4L624.4 492.2L624.7 491.9L625 492.6L625.3 492.1L625.6 491.6L625.9 491.2L626.3 491.6L626.6 491.9L626.9 491L627.2 490.6L627.5 491L627.8 491.2L628.1 491.3L628.4 491.6L628.8 491.5L629.1 492.1L629.4 492.4L629.7 492.2L630 490.8L630.3 491L630.6 490.4L630.9 491L631.3 491.9L631.6 489.9L631.9 489.7L632.2 490.1L632.5 490.2L632.8 489.9L633.1 488.9L633.4 488.8L633.8 488.8L634.1 489.5L634.4 489.9L634.7 488.8L635 489.3L635.3 488.1L635.6 489.5L636 489.1L636.3 487.9L636.6 488.5L636.9 489.9L637.2 489L637.5 489.9L637.8 487.8L638.1 489.5L638.5 489.5L638.8 489.9L639.1 490.6L639.4 489.1L639.7 489.1L640 489.1L640.3 488.8L640.6 487.8L641 487.6L641.3 489.3L641.6 487.7L641.9 488L642.2 488.1L642.5 487.4L642.8 487.4L643.1 486.9L643.5 487L643.8 486.7L644.1 485.1L644.4 484.6L644.7 485.1L645 484.4L645.3 485L645.7 484L646 484.9L646.3 485.5L646.6 484.5L646.9 482.3L647.2 481.3L647.5 481.7L647.8 482.4L648.2 481.5L648.5 481.1L648.8 481.7L649.1 480.7L649.4 479.6L649.7 478.8L650 477.5L650.3 478.7L650.7 476.8L651 476.7L651.3 477.7L651.6 476.6L651.9 476.2L652.2 476.7L652.5 478.6L652.9 475.7L653.2 475L653.5 474.5L653.8 473.6L654.1 473.8L654.4 472.3L654.7 472.3L655 470.9L655.4 471.1L655.7 471.3L656 470.8L656.3 470.5L656.6 470L656.9 470.1L657.2 470.2L657.5 470.5L657.9 471.2L658.2 469.6L658.5 468.6L658.8 467.7L659.1 467.7L659.4 468L659.7 468.7L660 468.4L660.4 467L660.7 465.4L661 463.3L661.3 463.5L661.6 464L661.9 465.6L662.2 466.1L662.6 463.5L662.9 462.4L663.2 460.8L663.5 460.7L663.8 458.7L664.1 457.1L664.4 458.1L664.7 458.6L665.1 457.8L665.4 458.9L665.7 459.1L666 458L666.3 456.7L666.6 456.2L666.9 459L667.2 458.3L667.6 457.2L667.9 456L668.2 455.5L668.5 453.6L668.8 454.2L669.1 450.5L669.4 450L669.8 450.3L670.1 450.6L670.4 458L670.7 462.2L671 463.9L671.3 459.5L671.6 458.1L671.9 456.3L672.3 453.7L672.6 456.1L672.9 451.7L673.2 451.2L673.5 449.5L673.8 450.2L674.1 453.7L674.4 453.6L674.8 452.1L675.1 448.3L675.4 446.1L675.7 443.4L676 441.3L676.3 440.7L676.6 440.8L676.9 433.9L677.3 426.7L677.6 424.9L677.9 423.6L678.2 427.6L678.5 431.6L678.8 435.2L679.1 436.8L679.5 435.2L679.8 432.7L680.1 432.9L680.4 430.8L680.7 431.2L681 428.2L681.3 425.1L681.6 422.2L682 421.5L682.3 420.5L682.6 421.1L682.9 417.9L683.2 413.2L683.5 410.8L683.8 410.7L684.1 407.4L684.5 402.6L684.8 400.4L685.1 398.9L685.4 397L685.7 392.9L686 391.2L686.3 388.7L686.6 386.7L687 382.6L687.3 374.2L687.6 376.1L687.9 376.3L688.2 373.2L688.5 370L688.8 364.9L689.2 361L689.5 363.7L689.8 365.9L690.1 363.5L690.4 358.3L690.7 354.6L691 349.5L691.3 342.8L691.7 335.3L692 327L692.3 323.5L692.6 323.3L692.9 326.2L693.2 326.2L693.5 322.2L693.8 315.4L694.2 311.2L694.5 306.8L694.8 301.1L695.1 295.1L695.4 288.9L695.7 281.6L696 276.4L696.4 272L696.7 265L697 260.4L697.3 254.9L697.6 250.7L697.9 246.3L698.2 250.3L698.5 263.8L698.9 261.2L699.2 259.7L699.5 257.7L699.8 254.7L700.1 248.4L700.4 244.2L700.7 240.7L701 235.7L701.4 232.6L701.7 229.7L702 262L702.3 244L702.6 234.8"></path><path fill="none" stroke-linecap="butt" stroke-linejoin="round" stroke="#996D39" stroke-width="1.5" id="line__United Kingdom" d="M382.8 504.8L461.6 503.5L462 503.5L462.3 503.6L462.6 503.8L462.9 504L463.2 504.1L463.5 502.8L463.8 504.5L464.1 503.7L464.5 503.8L464.8 504.3L465.1 504.4L465.4 504.5L465.7 504.5L466 502.9L466.3 503.6L466.6 504.3L467 504.2L467.3 504.5L467.6 504.6L467.9 504.3L468.2 504.8L468.5 504.8L468.8 503.7L469.2 504.8L469.5 504.2L469.8 503.9L470.1 505.5L470.4 505.4L470.7 505L471 505.3L471.3 505.7L471.7 505.5L472 505.5L472.3 505.6L472.6 504.9L472.9 505.2L473.2 505.9L473.5 505.8L473.8 505.8L474.2 505.4L474.5 505.2L474.8 505.3L475.1 504.7L475.4 504.4L475.7 504.8L476 504.3L476.3 504.6L476.7 504.7L477 504.6L477.3 504.4L477.6 504L477.9 504.9L478.2 504.7L478.5 504.9L478.9 504.5L479.2 504.4L479.5 504.2L479.8 504.3L480.1 504L480.4 504.2L480.7 504.1L481 504.1L481.4 505L481.7 505.3L482 504.9L482.3 503.9L482.6 503.7L482.9 503.9L483.2 505.2L483.5 504.7L483.9 504.3L484.2 505L484.5 504.2L484.8 504.1L485.1 504.2L485.4 504.9L485.7 504.5L486 504.7L486.4 505.1L486.7 504.7L487 504.4L487.3 504.7L487.6 505.1L487.9 504.7L488.2 503.8L488.6 503.6L488.9 505.4L489.2 504.4L489.5 504.4L489.8 504L490.1 504.2L490.4 503.6L490.7 504.3L491.1 504.7L491.4 504.4L491.7 504.2L492 504.7L492.3 503.6L492.6 502.1L492.9 501.7L493.2 501.7L493.6 502.1L493.9 501.8L494.2 502L494.5 501.7L494.8 501.7L495.1 501.6L495.4 501.6L495.8 502L496.1 502.3L496.4 502.6L496.7 501.5L497 502L497.3 501.7L497.6 502.4L497.9 502.4L498.3 503.2L498.6 501.9L498.9 502.3L499.2 503.3L499.5 502.5L499.8 503.4L500.1 503.7L500.4 502.3L500.8 501.9L501.1 502.1L501.4 503L501.7 502.5L502 502.2L502.3 501.8L502.6 502.3L502.9 500.9L503.3 502L503.6 500.7L503.9 500.6L504.2 501.5L504.5 501.1L504.8 501.8L505.1 500.5L505.5 498.8L505.8 501.3L506.1 500.1L506.4 500.6L506.7 500.5L507 500.7L507.3 499.8L507.6 500.3L508 500.7L508.3 500.8L508.6 500.5L508.9 500.3L509.2 500L509.5 500L509.8 501L510.1 500.9L510.5 501.9L510.8 501.5L511.1 500.7L511.4 501L511.7 501.3L512 502.4L512.3 500.9L512.6 500.6L513 501L513.3 499.9L513.6 500.6L513.9 499.9L514.2 500.2L514.5 501.1L514.8 500.7L515.2 500L515.5 499.9L515.8 500.3L516.1 500.7L516.4 501L516.7 501.7L517 501.3L517.3 501L517.7 500.9L518 501L518.3 500.7L518.6 499.9L518.9 501.3L519.2 502.1L519.5 502.5L519.8 502L520.2 501.5L520.5 501.3L520.8 502.7L521.1 502.3L521.4 500L521.7 500L522 501.8L522.4 501L522.7 500.7L523 500.3L523.3 501.3L523.6 500.9L523.9 500.9L524.2 501L524.5 501L524.9 500.9L525.2 501L525.5 500.9L525.8 502L526.1 501.3L526.4 501.5L526.7 501.5L527 501.5L527.4 500.4L527.7 500.3L528 501.4L528.3 501.7L528.6 501.8L528.9 501.5L529.2 501L529.5 501.2L529.9 501.5L530.2 502L530.5 501.7L530.8 501.8L531.1 501.2L531.4 501.6L531.7 502.4L532.1 501.9L532.4 501.6L532.7 501L533 500.6L533.3 501.2L533.6 501.8L533.9 501.2L534.2 501.3L534.6 502L534.9 500.8L535.2 501.9L535.5 501.7L535.8 501.4L536.1 501.4L536.4 501.3L536.7 501.1L537.1 501.4L537.4 500.8L537.7 501.1L538 501.5L538.3 500.7L538.6 500.6L538.9 500.6L539.3 500.8L539.6 501.3L539.9 500.9L540.2 500.4L540.5 500.4L540.8 500.3L541.1 500.2L541.4 500.5L541.8 500.3L542.1 499.8L542.4 500.3L542.7 500.1L543 500.7L543.3 500.2L543.6 500.2L543.9 499.9L544.3 500.1L544.6 500.1L544.9 500L545.2 500.2L545.5 500.4L545.8 500.1L546.1 499.9L546.4 499.7L546.8 499.6L547.1 499.7L547.4 499.7L547.7 500.7L548 500.6L548.3 500.5L548.6 500.4L549 500.9L549.3 500.5L549.6 500.6L549.9 500.1L550.2 501L550.5 501.2L550.8 500.4L551.1 501.1L551.5 500.2L551.8 500.7L552.1 501.1L552.4 500.7L552.7 501.1L553 500.5L553.3 500.9L553.6 500.7L554 499.8L554.3 500.4L554.6 500.9L554.9 501.1L555.2 501.5L555.5 502L555.8 500.2L556.1 501.4L556.5 501.5L556.8 503.7L557.1 502.8L557.4 499.7L557.7 500.5L558 500.4L558.3 500.2L558.7 500.3L559 499.2L559.3 499.7L559.6 499.8L559.9 498.2L560.2 499.2L560.5 499.3L560.8 499.4L561.2 500.5L561.5 500.5L561.8 501L562.1 499.2L562.4 500.9L562.7 499.5L563 499.1L563.3 501.3L563.7 499.7L564 499.9L564.3 500.7L564.6 501.1L564.9 502.4L565.2 501.1L565.5 501.5L565.9 503L566.2 503.3L566.5 502.2L566.8 500.9L567.1 502.4L567.4 501.8L567.7 501.7L568 500.8L568.4 500.1L568.7 502.6L569 502.6L569.3 503.1L569.6 503.6L569.9 501.7L570.2 500.1L570.5 500.8L570.9 501L571.2 500.4L571.5 499.7L571.8 498.8L572.1 500.4L572.4 499.8L572.7 501.1L573 501.7L573.4 500L573.7 499.2L574 500.4L574.3 501L574.6 501.4L574.9 501.8L575.2 500.9L575.6 501.6L575.9 500.4L576.2 500.5L576.5 501.6L576.8 499.8L577.1 499.8L577.4 501.6L577.7 501.7L578.1 500.2L578.4 500.1L578.7 500.6L579 500.5L579.3 499L579.6 502.7L579.9 502.8L580.2 502.6L580.6 501.3L580.9 502.2L581.2 502.1L581.5 501.7L581.8 502L582.1 502.4L582.4 501.3L582.8 501.2L583.1 500.9L583.4 502.2L583.7 501.3L584 500.6L584.3 500.5L584.6 502.2L584.9 502.1L585.3 502.1L585.6 502L585.9 502.2L586.2 502.6L586.5 502L586.8 500.6L587.1 499.2L587.4 499.3L587.8 498.7L588.1 499.8L588.4 500.6L588.7 500.8L589 502.7L589.3 501.7L589.6 501.4L589.9 501L590.3 498.9L590.6 499.9L590.9 499.3L591.2 497.6L591.5 497.2L591.8 499L592.1 498.7L592.5 499.1L592.8 499.5L593.1 499.6L593.4 499.4L593.7 500L594 499.7L594.3 497.2L594.6 498.4L595 497.9L595.3 498.9L595.6 497.1L595.9 498.6L596.2 497.5L596.5 496.3L596.8 499L597.1 497.8L597.5 499L597.8 497.4L598.1 496.2L598.4 496.9L598.7 495.8L599 495.7L599.3 494.3L599.6 497.2L600 494.1L600.3 495L600.6 495.8L600.9 496L601.2 495.6L601.5 496.3L601.8 495.6L602.2 494.2L602.5 494.8L602.8 496.1L603.1 493L603.4 494L603.7 497L604 495.1L604.3 494L604.7 496.6L605 498.1L605.3 496.8L605.6 496.7L605.9 497.5L606.2 496L606.5 496.5L606.8 495.9L607.2 495.1L607.5 494.2L607.8 494.7L608.1 493.4L608.4 494.2L608.7 494L609 494.5L609.4 494.8L609.7 494.4L610 495.1L610.3 495.3L610.6 494.6L610.9 495.3L611.2 494.7L611.5 495L611.9 493.9L612.2 493.5L612.5 493.8L612.8 494.4L613.1 493.2L613.4 494.4L613.7 494.1L614 494.4L614.4 494.8L614.7 494.3L615 493.7L615.3 494.1L615.6 494.5L615.9 494.4L616.2 494L616.5 493.2L616.9 493.4L617.2 493.7L617.5 493.5L617.8 494.1L618.1 493.3L618.4 493.2L618.7 493.9L619.1 493.5L619.4 493.9L619.7 492.9L620 492.7L620.3 492.4L620.6 492L620.9 491.3L621.2 492L621.6 492L621.9 492.1L622.2 492.4L622.5 492.2L622.8 492.1L623.1 492L623.4 491L623.7 491.7L624.1 491.4L624.4 492.2L624.7 491.9L625 492.6L625.3 492.1L625.6 491.6L625.9 491.2L626.3 491.6L626.6 491.9L626.9 491L627.2 490.6L627.5 491L627.8 491.2L628.1 491.3L628.4 491.6L628.8 491.5L629.1 492.1L629.4 492.4L629.7 492.2L630 490.8L630.3 491L630.6 490.4L630.9 491L631.3 491.9L631.6 489.9L631.9 489.7L632.2 490.1L632.5 490.2L632.8 489.9L633.1 488.9L633.4 488.8L633.8 488.8L634.1 489.5L634.4 489.9L634.7 488.8L635 489.3L635.3 488.1L635.6 489.5L636 489.1L636.3 487.9L636.6 488.5L636.9 489.9L637.2 489L637.5 489.9L637.8 487.8L638.1 489.5L638.5 489.5L638.8 489.9L639.1 490.6L639.4 489.1L639.7 489.1L640 489.1L640.3 488.8L640.6 487.8L641 487.6L641.3 489.3L641.6 487.7L641.9 488L642.2 488.1L642.5 487.4L642.8 487.4L643.1 486.9L643.5 487L643.8 486.7L644.1 485.1L644.4 484.6L644.7 485.1L645 484.4L645.3 485L645.7 484L646 484.9L646.3 485.5L646.6 484.5L646.9 482.3L647.2 481.3L647.5 481.7L647.8 482.4L648.2 481.5L648.5 481.1L648.8 481.7L649.1 480.7L649.4 479.6L649.7 478.8L650 477.5L650.3 478.7L650.7 476.8L651 476.7L651.3 477.7L651.6 476.6L651.9 476.2L652.2 476.7L652.5 478.6L652.9 475.7L653.2 475L653.5 474.5L653.8 473.6L654.1 473.8L654.4 472.3L654.7 472.3L655 470.9L655.4 471.1L655.7 471.3L656 470.8L656.3 470.5L656.6 470L656.9 470.1L657.2 470.2L657.5 470.5L657.9 471.2L658.2 469.6L658.5 468.6L658.8 467.7L659.1 467.7L659.4 468L659.7 468.7L660 468.4L660.4 467L660.7 465.4L661 463.3L661.3 463.5L661.6 464L661.9 465.6L662.2 466.1L662.6 463.5L662.9 462.4L663.2 460.8L663.5 460.7L663.8 458.7L664.1 457.1L664.4 458.1L664.7 458.6L665.1 457.8L665.4 458.9L665.7 459.1L666 458L666.3 456.7L666.6 456.2L666.9 459L667.2 458.3L667.6 457.2L667.9 456L668.2 455.5L668.5 453.6L668.8 454.2L669.1 450.5L669.4 450L669.8 450.3L670.1 450.6L670.4 458L670.7 462.2L671 463.9L671.3 459.5L671.6 458.1L671.9 456.3L672.3 453.7L672.6 456.1L672.9 451.7L673.2 451.2L673.5 449.5L673.8 450.2L674.1 453.7L674.4 453.6L674.8 452.1L675.1 448.3L675.4 446.1L675.7 443.4L676 441.3L676.3 440.7L676.6 440.8L676.9 433.9L677.3 426.7L677.6 424.9L677.9 423.6L678.2 427.6L678.5 431.6L678.8 435.2L679.1 436.8L679.5 435.2L679.8 432.7L680.1 432.9L680.4 430.8L680.7 431.2L681 428.2L681.3 425.1L681.6 422.2L682 421.5L682.3 420.5L682.6 421.1L682.9 417.9L683.2 413.2L683.5 410.8L683.8 410.7L684.1 407.4L684.5 402.6L684.8 400.4L685.1 398.9L685.4 397L685.7 392.9L686 391.2L686.3 388.7L686.6 386.7L687 382.6L687.3 374.2L687.6 376.1L687.9 376.3L688.2 373.2L688.5 370L688.8 364.9L689.2 361L689.5 363.7L689.8 365.9L690.1 363.5L690.4 358.3L690.7 354.6L691 349.5L691.3 342.8L691.7 335.3L692 327L692.3 323.5L692.6 323.3L692.9 326.2L693.2 326.2L693.5 322.2L693.8 315.4L694.2 311.2L694.5 306.8L694.8 301.1L695.1 295.1L695.4 288.9L695.7 281.6L696 276.4L696.4 272L696.7 265L697 260.4L697.3 254.9L697.6 250.7L697.9 246.3L698.2 250.3L698.5 263.8L698.9 261.2L699.2 259.7L699.5 257.7L699.8 254.7L700.1 248.4L700.4 244.2L700.7 240.7L701 235.7L701.4 232.6L701.7 229.7L702 262L702.3 244L702.6 234.8"></path><path fill="none" stroke-linecap="butt" stroke-linejoin="round" stroke="#ffffff" stroke-width="2.5" id="outline__China" d="M382.8 504.2L410.9 504.2L429.7 504.5L508 502.9L511.1 502.9L514.2 502.9L517.3 502.2L520.5 502.5L523.6 503.1L526.7 503.5L529.9 503.4L533 504.1L536.1 504.5L539.3 504.4L542.4 503.9L545.5 504.7L548.6 504.5L551.8 504.5L554.9 504.4L558 504.4L561.2 504.1L564.3 504.3L567.4 504.3L570.5 504.3L573.7 503.8L576.8 504L589.6 503.5L597.1 503.8L598.7 502.9L601.8 501.9L605 502.9L608.1 503.6L609.4 504.6L611.2 504.2L614.4 504.7L617.5 505.4L620.6 505.7L622.5 505.9L623.7 505.9L626.9 506L630 506.2L633.1 506.4L636.3 506.6L639.4 506.7L642.5 507L645.7 506.9L648.8 506.9L655 506.3L660.4 506.5L661.3 506.1L664.4 506.1L667.9 506.5L668.5 506L673.5 505.8L673.8 505.8L674.1 505.7L674.4 505.6L674.8 506.4L675.1 506.3L675.4 505.8L675.7 505.4L676 505.6L676.3 505.8L680.1 507.3L680.4 506.2L680.7 505.5L681 504.7L681.3 505.5L681.6 505L682 504.5L682.3 504.4L682.6 504.6L682.9 505L683.2 505.4L683.5 506.8L683.8 506.4L684.1 505.6L684.5 504.8L684.8 504L685.1 504L685.4 504.1L685.7 504.6L686 503.9L686.3 503L686.6 502.6L687 502.7L687.3 502.1L687.6 502.1L687.9 501.5L688.2 502.1L688.5 501.6L688.8 500.5L689.2 499.6L689.5 499.1L689.8 498.9L690.1 497.7L690.4 497L690.7 495.4L691 494.1L691.3 493.2L691.7 491.9L692 491L692.3 491.2L692.6 491.5L692.9 491L693.2 489.7L693.5 487.7L693.8 486.1L694.2 484.1L694.5 482.5L694.8 481.9L695.1 481.9L695.4 480.7L695.7 478.8L696 476.9L696.4 474.4L696.7 472.2L697 469.1L697.3 465.1L697.6 460.4L697.9 455.9L698.2 453.7L698.5 449.8L698.9 443.1L699.2 439L699.5 433.8L699.8 428.1L700.1 422.4L700.4 416.5L700.7 410.6L701 404.2L701.4 397.3L701.7 390.8L702 388.3L702.3 377.8L702.6 373.7"></path><path fill="none" stroke-linecap="butt" stroke-linejoin="round" stroke="#B13507" stroke-width="1.5" id="line__China" d="M382.8 504.2L410.9 504.2L429.7 504.5L508 502.9L511.1 502.9L514.2 502.9L517.3 502.2L520.5 502.5L523.6 503.1L526.7 503.5L529.9 503.4L533 504.1L536.1 504.5L539.3 504.4L542.4 503.9L545.5 504.7L548.6 504.5L551.8 504.5L554.9 504.4L558 504.4L561.2 504.1L564.3 504.3L567.4 504.3L570.5 504.3L573.7 503.8L576.8 504L589.6 503.5L597.1 503.8L598.7 502.9L601.8 501.9L605 502.9L608.1 503.6L609.4 504.6L611.2 504.2L614.4 504.7L617.5 505.4L620.6 505.7L622.5 505.9L623.7 505.9L626.9 506L630 506.2L633.1 506.4L636.3 506.6L639.4 506.7L642.5 507L645.7 506.9L648.8 506.9L655 506.3L660.4 506.5L661.3 506.1L664.4 506.1L667.9 506.5L668.5 506L673.5 505.8L673.8 505.8L674.1 505.7L674.4 505.6L674.8 506.4L675.1 506.3L675.4 505.8L675.7 505.4L676 505.6L676.3 505.8L680.1 507.3L680.4 506.2L680.7 505.5L681 504.7L681.3 505.5L681.6 505L682 504.5L682.3 504.4L682.6 504.6L682.9 505L683.2 505.4L683.5 506.8L683.8 506.4L684.1 505.6L684.5 504.8L684.8 504L685.1 504L685.4 504.1L685.7 504.6L686 503.9L686.3 503L686.6 502.6L687 502.7L687.3 502.1L687.6 502.1L687.9 501.5L688.2 502.1L688.5 501.6L688.8 500.5L689.2 499.6L689.5 499.1L689.8 498.9L690.1 497.7L690.4 497L690.7 495.4L691 494.1L691.3 493.2L691.7 491.9L692 491L692.3 491.2L692.6 491.5L692.9 491L693.2 489.7L693.5 487.7L693.8 486.1L694.2 484.1L694.5 482.5L694.8 481.9L695.1 481.9L695.4 480.7L695.7 478.8L696 476.9L696.4 474.4L696.7 472.2L697 469.1L697.3 465.1L697.6 460.4L697.9 455.9L698.2 453.7L698.5 449.8L698.9 443.1L699.2 439L699.5 433.8L699.8 428.1L700.1 422.4L700.4 416.5L700.7 410.6L701 404.2L701.4 397.3L701.7 390.8L702 388.3L702.3 377.8L702.6 373.7"></path><path fill="none" stroke-linecap="butt" stroke-linejoin="round" stroke="#ffffff" stroke-width="2.5" id="outline__France" d="M70.1 506.2L469.2 503.2L469.5 502.8L469.8 503.5L470.1 503.6L470.4 503.6L470.7 503.8L471 503.1L471.3 503.1L471.7 503.2L472 505L472.3 504.1L472.6 503L472.9 503.7L473.2 503.2L473.5 503.9L473.8 504L474.2 504.9L474.5 505.6L474.8 505.3L475.1 503.7L475.4 503.7L475.7 503.1L476 503.6L476.3 504.5L476.7 503.9L477 504L477.3 501.4L477.6 502.2L477.9 504.5L478.2 502.9L478.5 504.6L478.9 503.3L479.2 501.6L479.5 502.1L479.8 501.9L480.1 503.7L480.4 503.2L480.7 503.1L481 503.2L481.4 504.2L481.7 506.1L482 503.2L482.3 503.2L482.6 503.7L482.9 504.9L483.2 504.4L483.5 504.7L483.9 503.4L484.2 504.6L484.5 503.8L484.8 503.6L485.1 503.3L485.4 502.9L485.7 503.4L486 503.1L486.4 502.6L486.7 502L487 503.3L487.3 502.4L487.6 501.4L487.9 502.2L488.2 502.6L488.6 502.5L488.9 503.1L489.2 502.1L489.5 500.4L489.8 503L490.1 502.3L490.4 501.7L490.7 501.7L491.1 502.7L491.4 502L491.7 502.8L492 503L492.3 502.8L492.6 505L492.9 503.4L493.2 502.8L493.6 502.6L493.9 503.2L494.2 501.1L494.5 498L494.8 501.5L495.1 502.6L495.4 501.9L495.8 501.9L496.1 498.6L496.4 500.4L496.7 502.3L497 499L497.3 500.1L497.6 500.3L497.9 500.7L498.3 502.3L498.6 502.9L498.9 501.6L499.2 497.9L499.5 500L499.8 500.1L500.1 500.8L500.4 501.2L500.8 500.8L501.1 501.2L501.4 501.4L501.7 500.6L502 502.6L502.3 500.8L502.6 500.1L502.9 499.3L503.3 499.7L503.6 501L503.9 500.8L504.2 501.5L504.5 501.5L504.8 502.2L505.1 502.7L505.5 502.4L505.8 500.7L506.1 501.4L506.4 500.8L506.7 502.5L507 501.3L507.3 500.6L507.6 501.3L508 501.4L508.3 502.1L508.6 501.9L508.9 501.6L509.2 500.8L509.5 501.6L509.8 501.4L510.1 501.5L510.5 501.7L510.8 501.5L511.1 501.8L511.4 501.4L511.7 501.7L512 501.4L512.3 500.5L512.6 501.1L513 501.9L513.3 501.3L513.6 501.5L513.9 502.1L514.2 501.5L514.5 501.3L514.8 501.5L515.2 501L515.5 500.9L515.8 502.2L516.1 501.5L516.4 501.2L516.7 501.4L517 503.1L517.3 501.4L517.7 501.8L518 502.3L518.3 502.4L518.6 502.2L518.9 502.3L519.2 502.2L519.5 503.4L519.8 504.5L520.2 503.8L520.5 502.8L520.8 501.9L521.1 502.8L521.4 502.1L521.7 500.7L522 501.2L522.4 502.4L522.7 502.1L523 501.7L523.3 500.7L523.6 502.1L523.9 500.8L524.2 501L524.5 499.7L524.9 500.3L525.2 502.6L525.5 503.3L525.8 503.3L526.1 502.8L526.4 503L526.7 503.9L527 502.6L527.4 501.4L527.7 501L528 501.3L528.3 501.4L528.6 501.3L528.9 500.5L529.2 500.6L529.5 500.2L529.9 500.6L530.2 501.7L530.5 500.7L530.8 501.8L531.1 501.3L531.4 501.7L531.7 501.9L532.1 502.2L532.4 502.7L532.7 502.5L533 501.7L533.3 502.9L533.6 503.8L533.9 503.8L534.2 501.8L534.6 502.1L534.9 502.7L535.2 502L535.5 502.6L535.8 502.8L536.1 502.3L536.4 502.3L536.7 502.4L537.1 502.9L537.4 501.9L537.7 500.9L538 500.8L538.3 501.4L538.6 502L538.9 501.7L539.3 501L539.6 502.2L539.9 503L540.2 502.4L540.5 503L540.8 503.3L541.1 502.1L541.4 502.2L541.8 502.6L542.1 501.6L542.4 501.6L542.7 501.6L543 502.9L543.3 502.8L543.6 502.1L543.9 502.5L544.3 503.5L544.6 503.2L544.9 502.7L545.2 502.9L545.5 503.4L545.8 503.4L546.1 503.1L546.4 502.7L546.8 503.2L547.1 502.8L547.4 502L547.7 502.8L548 503.7L548.3 503.4L548.6 503.5L549 504.1L549.3 503.4L549.6 502.2L549.9 502.9L550.2 502L550.5 501.8L550.8 501.2L551.1 502.2L551.5 502.3L551.8 502.2L552.1 501.7L552.4 501.4L552.7 502.1L553 502.8L553.3 504.4L553.6 503.3L554 501.4L554.3 501.8L554.6 503.1L554.9 502.7L555.2 503.4L555.5 503.5L555.8 503.1L556.1 503.1L556.5 503L556.8 503.9L557.1 503.8L557.4 503.2L557.7 503.3L558 503.7L558.3 503.8L558.7 503.9L559 503.6L559.3 503.5L559.6 503.6L559.9 504.6L560.2 503.6L560.5 502.8L560.8 502L561.2 503.1L561.5 504.1L561.8 504.2L562.1 504.6L562.4 504.5L562.7 503.6L563 503.1L563.3 503.1L563.7 502.5L564 503.4L564.3 503.8L564.6 502.6L564.9 503.2L565.2 503.3L565.5 503.3L565.9 503L566.2 505L566.5 505L566.8 503.5L567.1 503.2L567.4 503L567.7 504L568 504.2L568.4 504L568.7 502L569 502L569.3 502.2L569.6 504.2L569.9 502.7L570.2 502.6L570.5 501.7L570.9 501.7L571.2 501.2L571.5 501.8L571.8 500.5L572.1 501.6L572.4 501.7L572.7 502.3L573 502.2L573.4 501.6L573.7 501L574 500.8L574.3 501.7L574.6 501L574.9 501.9L575.2 502.2L575.6 502.3L575.9 500.8L576.2 501.6L576.5 502.3L576.8 500.5L577.1 501.4L577.4 500.2L577.7 501.7L578.1 500.3L578.4 500.6L578.7 502.8L579 502.3L579.3 502.8L579.6 502.4L579.9 502.5L580.2 502.9L580.6 502.4L580.9 502.4L581.2 501L581.5 502.4L581.8 502.6L582.1 503.3L582.4 502.2L582.8 502.2L583.1 501.8L583.4 502.3L583.7 501.1L584 502.6L584.3 503L584.6 501.8L584.9 500.8L585.3 500.7L585.6 501.4L585.9 502.3L586.2 501.8L586.5 501.4L586.8 501.9L587.1 500.5L587.4 501.4L587.8 500.5L588.1 499.4L588.4 499.3L588.7 500.6L589 500.1L589.3 499.5L589.6 499.2L589.9 500L590.3 500L590.6 498.8L590.9 499L591.2 498.1L591.5 498.3L591.8 497.4L592.1 497.5L592.5 498.5L592.8 497.3L593.1 499.1L593.4 497.6L593.7 499.1L594 499L594.3 499.1L594.6 500.3L595 500.1L595.3 500.5L595.6 499.8L595.9 500.3L596.2 499.2L596.5 498.9L596.8 499.9L597.1 500.7L597.5 500.4L597.8 499.7L598.1 499L598.4 499L598.7 500.1L599 500.6L599.3 501.8L599.6 502.1L600 501.3L600.3 501L600.6 499.8L600.9 500.6L601.2 501.2L601.5 502.1L601.8 500.4L602.2 500.2L602.5 500.7L602.8 500.2L603.1 499.3L603.4 499.7L603.7 498.9L604 498.6L604.3 500.1L604.7 503.7L605 502.2L605.3 500.8L605.6 501.1L605.9 501.7L606.2 501.1L606.5 499.1L606.8 498.1L607.2 496L607.5 498.6L607.8 498.9L608.1 499.6L608.4 498.2L608.7 499.6L609 500.1L609.4 500.6L609.7 500.3L610 500.4L610.3 499.5L610.6 499.4L610.9 499.4L611.2 499.4L611.5 499.3L611.9 498.9L612.2 498.6L612.5 499L612.8 499.3L613.1 499.6L613.4 499.6L613.7 499.8L614 500.3L614.4 501L614.7 501.2L615 500.1L615.3 498.8L615.6 498.3L615.9 499.1L616.2 499.6L616.5 500.1L616.9 500.8L617.2 500.7L617.5 500.5L617.8 500.4L618.1 500.6L618.4 499.1L618.7 499.9L619.1 499L619.4 498.8L619.7 499.5L620 499.8L620.3 500.1L620.6 499.7L620.9 499.2L621.2 498.5L621.6 498.6L621.9 499.4L622.2 499.8L622.5 499.7L622.8 500.2L623.1 500.6L623.4 500.8L623.7 501.7L624.1 501.5L624.4 500.9L624.7 500.6L625 500L625.3 500.5L625.6 499.7L625.9 500L626.3 500.1L626.6 499.3L626.9 498.8L627.2 499.2L627.5 498.9L627.8 499.5L628.1 499.4L628.4 499.4L628.8 499.1L629.1 498.8L629.4 498.5L629.7 500.8L630 500.3L630.3 500.3L630.6 501.4L630.9 501.5L631.3 501.6L631.6 501.5L631.9 501.3L632.2 501.1L632.5 500.7L632.8 500.5L633.1 501.1L633.4 501.7L633.8 501.6L634.1 500.5L634.4 498.5L634.7 499.4L635 499.6L635.3 500L635.6 498.4L636 498.5L636.3 499.2L636.6 500.3L636.9 501.5L637.2 499.6L637.5 498.7L637.8 500.2L638.1 501.6L638.5 502.7L638.8 501.5L639.1 501.1L639.4 500L639.7 499L640 499.5L640.3 499.1L640.6 498.7L641 499.3L641.3 499L641.6 499.3L641.9 499.4L642.2 499L642.5 499.3L642.8 499.2L643.1 497.9L643.5 498.2L643.8 498.2L644.1 497.7L644.4 498L644.7 497.7L645 497.1L645.3 497.7L645.7 496.6L646 496.3L646.3 496.7L646.6 495.9L646.9 495.4L647.2 496L647.5 496L647.8 494.2L648.2 495.4L648.5 494.9L648.8 494.7L649.1 495L649.4 493.9L649.7 494.9L650 494.1L650.3 494.4L650.7 493.6L651 492.5L651.3 491.2L651.6 492.6L651.9 491.2L652.2 492.7L652.5 491L652.9 490.3L653.2 490.1L653.5 490.9L653.8 490.8L654.1 492.2L654.4 490.2L654.7 489.9L655 491.4L655.4 491.2L655.7 489.1L656 490.9L656.3 488.2L656.6 487.5L656.9 489.7L657.2 488.5L657.5 488.9L657.9 490.5L658.2 488.6L658.5 487.8L658.8 486.7L659.1 486.7L659.4 487.1L659.7 487.6L660 487.3L660.4 487.1L660.7 486.9L661 486.3L661.3 485.7L661.6 485L661.9 484.3L662.2 483.8L662.6 482.8L662.9 483.4L663.2 482.1L663.5 482.6L663.8 481.2L664.1 479.5L664.4 479.9L664.7 480.5L665.1 481L665.4 480.4L665.7 480.2L666 479.7L666.3 479.1L666.6 477.6L666.9 477.9L667.2 476.5L667.6 478.9L667.9 475.6L668.2 472.5L668.5 472.8L668.8 475.7L669.1 475.6L669.4 473.1L669.8 478.7L670.1 485.4L670.4 480.6L670.7 475.8L671 477.6L671.3 471.4L671.6 469.7L671.9 464.8L672.3 465L672.6 464L672.9 465.1L673.2 461.9L673.5 458.7L673.8 460.7L674.1 464.2L674.4 467.4L674.8 464.1L675.1 464.7L675.4 465.9L675.7 464.1L676 461.3L676.3 461.5L676.6 457.7L676.9 466.4L677.3 474.9L677.6 478.7L677.9 480.1L678.2 485.1L678.5 483.4L678.8 468.6L679.1 465.3L679.5 462.4L679.8 456L680.1 453.2L680.4 450L680.7 448.8L681 447.4L681.3 444.8L681.6 441.5L682 438.6L682.3 435L682.6 433.9L682.9 432.5L683.2 427.6L683.5 423.9L683.8 419.9L684.1 416.5L684.5 411.2L684.8 407.2L685.1 402.9L685.4 398.7L685.7 394.5L686 387.4L686.3 381.3L686.6 376.3L687 371.4L687.3 365L687.6 361.6L687.9 363.4L688.2 357.5L688.5 352.4L688.8 348.6L689.2 344.1L689.5 342.5L689.8 341.7L690.1 338.3L690.4 337L690.7 335.4L691 333.7L691.3 330.2L691.7 326.5L692 319.2L692.3 313.3L692.6 309.3L692.9 308.1L693.2 305.7L693.5 307.8L693.8 303.6L694.2 299.9L694.5 297.6L694.8 293.2L695.1 286.1L695.4 279.1L695.7 271L696 267.3L696.4 265.6L696.7 264.6L697 258.8L697.3 255.9L697.6 251L697.9 246.1L698.2 246.7L698.5 255.6L698.9 251.6L699.2 247.2L699.5 247.7L699.8 247.5L700.1 246.3L700.4 244.4L700.7 242.5L701 237.4L701.4 233.7L701.7 229.9L702 252.8L702.3 236L702.6 230"></path><path fill="none" stroke-linecap="butt" stroke-linejoin="round" stroke="#4C6A9C" stroke-width="1.5" id="line__France" d="M70.1 506.2L469.2 503.2L469.5 502.8L469.8 503.5L470.1 503.6L470.4 503.6L470.7 503.8L471 503.1L471.3 503.1L471.7 503.2L472 505L472.3 504.1L472.6 503L472.9 503.7L473.2 503.2L473.5 503.9L473.8 504L474.2 504.9L474.5 505.6L474.8 505.3L475.1 503.7L475.4 503.7L475.7 503.1L476 503.6L476.3 504.5L476.7 503.9L477 504L477.3 501.4L477.6 502.2L477.9 504.5L478.2 502.9L478.5 504.6L478.9 503.3L479.2 501.6L479.5 502.1L479.8 501.9L480.1 503.7L480.4 503.2L480.7 503.1L481 503.2L481.4 504.2L481.7 506.1L482 503.2L482.3 503.2L482.6 503.7L482.9 504.9L483.2 504.4L483.5 504.7L483.9 503.4L484.2 504.6L484.5 503.8L484.8 503.6L485.1 503.3L485.4 502.9L485.7 503.4L486 503.1L486.4 502.6L486.7 502L487 503.3L487.3 502.4L487.6 501.4L487.9 502.2L488.2 502.6L488.6 502.5L488.9 503.1L489.2 502.1L489.5 500.4L489.8 503L490.1 502.3L490.4 501.7L490.7 501.7L491.1 502.7L491.4 502L491.7 502.8L492 503L492.3 502.8L492.6 505L492.9 503.4L493.2 502.8L493.6 502.6L493.9 503.2L494.2 501.1L494.5 498L494.8 501.5L495.1 502.6L495.4 501.9L495.8 501.9L496.1 498.6L496.4 500.4L496.7 502.3L497 499L497.3 500.1L497.6 500.3L497.9 500.7L498.3 502.3L498.6 502.9L498.9 501.6L499.2 497.9L499.5 500L499.8 500.1L500.1 500.8L500.4 501.2L500.8 500.8L501.1 501.2L501.4 501.4L501.7 500.6L502 502.6L502.3 500.8L502.6 500.1L502.9 499.3L503.3 499.7L503.6 501L503.9 500.8L504.2 501.5L504.5 501.5L504.8 502.2L505.1 502.7L505.5 502.4L505.8 500.7L506.1 501.4L506.4 500.8L506.7 502.5L507 501.3L507.3 500.6L507.6 501.3L508 501.4L508.3 502.1L508.6 501.9L508.9 501.6L509.2 500.8L509.5 501.6L509.8 501.4L510.1 501.5L510.5 501.7L510.8 501.5L511.1 501.8L511.4 501.4L511.7 501.7L512 501.4L512.3 500.5L512.6 501.1L513 501.9L513.3 501.3L513.6 501.5L513.9 502.1L514.2 501.5L514.5 501.3L514.8 501.5L515.2 501L515.5 500.9L515.8 502.2L516.1 501.5L516.4 501.2L516.7 501.4L517 503.1L517.3 501.4L517.7 501.8L518 502.3L518.3 502.4L518.6 502.2L518.9 502.3L519.2 502.2L519.5 503.4L519.8 504.5L520.2 503.8L520.5 502.8L520.8 501.9L521.1 502.8L521.4 502.1L521.7 500.7L522 501.2L522.4 502.4L522.7 502.1L523 501.7L523.3 500.7L523.6 502.1L523.9 500.8L524.2 501L524.5 499.7L524.9 500.3L525.2 502.6L525.5 503.3L525.8 503.3L526.1 502.8L526.4 503L526.7 503.9L527 502.6L527.4 501.4L527.7 501L528 501.3L528.3 501.4L528.6 501.3L528.9 500.5L529.2 500.6L529.5 500.2L529.9 500.6L530.2 501.7L530.5 500.7L530.8 501.8L531.1 501.3L531.4 501.7L531.7 501.9L532.1 502.2L532.4 502.7L532.7 502.5L533 501.7L533.3 502.9L533.6 503.8L533.9 503.8L534.2 501.8L534.6 502.1L534.9 502.7L535.2 502L535.5 502.6L535.8 502.8L536.1 502.3L536.4 502.3L536.7 502.4L537.1 502.9L537.4 501.9L537.7 500.9L538 500.8L538.3 501.4L538.6 502L538.9 501.7L539.3 501L539.6 502.2L539.9 503L540.2 502.4L540.5 503L540.8 503.3L541.1 502.1L541.4 502.2L541.8 502.6L542.1 501.6L542.4 501.6L542.7 501.6L543 502.9L543.3 502.8L543.6 502.1L543.9 502.5L544.3 503.5L544.6 503.2L544.9 502.7L545.2 502.9L545.5 503.4L545.8 503.4L546.1 503.1L546.4 502.7L546.8 503.2L547.1 502.8L547.4 502L547.7 502.8L548 503.7L548.3 503.4L548.6 503.5L549 504.1L549.3 503.4L549.6 502.2L549.9 502.9L550.2 502L550.5 501.8L550.8 501.2L551.1 502.2L551.5 502.3L551.8 502.2L552.1 501.7L552.4 501.4L552.7 502.1L553 502.8L553.3 504.4L553.6 503.3L554 501.4L554.3 501.8L554.6 503.1L554.9 502.7L555.2 503.4L555.5 503.5L555.8 503.1L556.1 503.1L556.5 503L556.8 503.9L557.1 503.8L557.4 503.2L557.7 503.3L558 503.7L558.3 503.8L558.7 503.9L559 503.6L559.3 503.5L559.6 503.6L559.9 504.6L560.2 503.6L560.5 502.8L560.8 502L561.2 503.1L561.5 504.1L561.8 504.2L562.1 504.6L562.4 504.5L562.7 503.6L563 503.1L563.3 503.1L563.7 502.5L564 503.4L564.3 503.8L564.6 502.6L564.9 503.2L565.2 503.3L565.5 503.3L565.9 503L566.2 505L566.5 505L566.8 503.5L567.1 503.2L567.4 503L567.7 504L568 504.2L568.4 504L568.7 502L569 502L569.3 502.2L569.6 504.2L569.9 502.7L570.2 502.6L570.5 501.7L570.9 501.7L571.2 501.2L571.5 501.8L571.8 500.5L572.1 501.6L572.4 501.7L572.7 502.3L573 502.2L573.4 501.6L573.7 501L574 500.8L574.3 501.7L574.6 501L574.9 501.9L575.2 502.2L575.6 502.3L575.9 500.8L576.2 501.6L576.5 502.3L576.8 500.5L577.1 501.4L577.4 500.2L577.7 501.7L578.1 500.3L578.4 500.6L578.7 502.8L579 502.3L579.3 502.8L579.6 502.4L579.9 502.5L580.2 502.9L580.6 502.4L580.9 502.4L581.2 501L581.5 502.4L581.8 502.6L582.1 503.3L582.4 502.2L582.8 502.2L583.1 501.8L583.4 502.3L583.7 501.1L584 502.6L584.3 503L584.6 501.8L584.9 500.8L585.3 500.7L585.6 501.4L585.9 502.3L586.2 501.8L586.5 501.4L586.8 501.9L587.1 500.5L587.4 501.4L587.8 500.5L588.1 499.4L588.4 499.3L588.7 500.6L589 500.1L589.3 499.5L589.6 499.2L589.9 500L590.3 500L590.6 498.8L590.9 499L591.2 498.1L591.5 498.3L591.8 497.4L592.1 497.5L592.5 498.5L592.8 497.3L593.1 499.1L593.4 497.6L593.7 499.1L594 499L594.3 499.1L594.6 500.3L595 500.1L595.3 500.5L595.6 499.8L595.9 500.3L596.2 499.2L596.5 498.9L596.8 499.9L597.1 500.7L597.5 500.4L597.8 499.7L598.1 499L598.4 499L598.7 500.1L599 500.6L599.3 501.8L599.6 502.1L600 501.3L600.3 501L600.6 499.8L600.9 500.6L601.2 501.2L601.5 502.1L601.8 500.4L602.2 500.2L602.5 500.7L602.8 500.2L603.1 499.3L603.4 499.7L603.7 498.9L604 498.6L604.3 500.1L604.7 503.7L605 502.2L605.3 500.8L605.6 501.1L605.9 501.7L606.2 501.1L606.5 499.1L606.8 498.1L607.2 496L607.5 498.6L607.8 498.9L608.1 499.6L608.4 498.2L608.7 499.6L609 500.1L609.4 500.6L609.7 500.3L610 500.4L610.3 499.5L610.6 499.4L610.9 499.4L611.2 499.4L611.5 499.3L611.9 498.9L612.2 498.6L612.5 499L612.8 499.3L613.1 499.6L613.4 499.6L613.7 499.8L614 500.3L614.4 501L614.7 501.2L615 500.1L615.3 498.8L615.6 498.3L615.9 499.1L616.2 499.6L616.5 500.1L616.9 500.8L617.2 500.7L617.5 500.5L617.8 500.4L618.1 500.6L618.4 499.1L618.7 499.9L619.1 499L619.4 498.8L619.7 499.5L620 499.8L620.3 500.1L620.6 499.7L620.9 499.2L621.2 498.5L621.6 498.6L621.9 499.4L622.2 499.8L622.5 499.7L622.8 500.2L623.1 500.6L623.4 500.8L623.7 501.7L624.1 501.5L624.4 500.9L624.7 500.6L625 500L625.3 500.5L625.6 499.7L625.9 500L626.3 500.1L626.6 499.3L626.9 498.8L627.2 499.2L627.5 498.9L627.8 499.5L628.1 499.4L628.4 499.4L628.8 499.1L629.1 498.8L629.4 498.5L629.7 500.8L630 500.3L630.3 500.3L630.6 501.4L630.9 501.5L631.3 501.6L631.6 501.5L631.9 501.3L632.2 501.1L632.5 500.7L632.8 500.5L633.1 501.1L633.4 501.7L633.8 501.6L634.1 500.5L634.4 498.5L634.7 499.4L635 499.6L635.3 500L635.6 498.4L636 498.5L636.3 499.2L636.6 500.3L636.9 501.5L637.2 499.6L637.5 498.7L637.8 500.2L638.1 501.6L638.5 502.7L638.8 501.5L639.1 501.1L639.4 500L639.7 499L640 499.5L640.3 499.1L640.6 498.7L641 499.3L641.3 499L641.6 499.3L641.9 499.4L642.2 499L642.5 499.3L642.8 499.2L643.1 497.9L643.5 498.2L643.8 498.2L644.1 497.7L644.4 498L644.7 497.7L645 497.1L645.3 497.7L645.7 496.6L646 496.3L646.3 496.7L646.6 495.9L646.9 495.4L647.2 496L647.5 496L647.8 494.2L648.2 495.4L648.5 494.9L648.8 494.7L649.1 495L649.4 493.9L649.7 494.9L650 494.1L650.3 494.4L650.7 493.6L651 492.5L651.3 491.2L651.6 492.6L651.9 491.2L652.2 492.7L652.5 491L652.9 490.3L653.2 490.1L653.5 490.9L653.8 490.8L654.1 492.2L654.4 490.2L654.7 489.9L655 491.4L655.4 491.2L655.7 489.1L656 490.9L656.3 488.2L656.6 487.5L656.9 489.7L657.2 488.5L657.5 488.9L657.9 490.5L658.2 488.6L658.5 487.8L658.8 486.7L659.1 486.7L659.4 487.1L659.7 487.6L660 487.3L660.4 487.1L660.7 486.9L661 486.3L661.3 485.7L661.6 485L661.9 484.3L662.2 483.8L662.6 482.8L662.9 483.4L663.2 482.1L663.5 482.6L663.8 481.2L664.1 479.5L664.4 479.9L664.7 480.5L665.1 481L665.4 480.4L665.7 480.2L666 479.7L666.3 479.1L666.6 477.6L666.9 477.9L667.2 476.5L667.6 478.9L667.9 475.6L668.2 472.5L668.5 472.8L668.8 475.7L669.1 475.6L669.4 473.1L669.8 478.7L670.1 485.4L670.4 480.6L670.7 475.8L671 477.6L671.3 471.4L671.6 469.7L671.9 464.8L672.3 465L672.6 464L672.9 465.1L673.2 461.9L673.5 458.7L673.8 460.7L674.1 464.2L674.4 467.4L674.8 464.1L675.1 464.7L675.4 465.9L675.7 464.1L676 461.3L676.3 461.5L676.6 457.7L676.9 466.4L677.3 474.9L677.6 478.7L677.9 480.1L678.2 485.1L678.5 483.4L678.8 468.6L679.1 465.3L679.5 462.4L679.8 456L680.1 453.2L680.4 450L680.7 448.8L681 447.4L681.3 444.8L681.6 441.5L682 438.6L682.3 435L682.6 433.9L682.9 432.5L683.2 427.6L683.5 423.9L683.8 419.9L684.1 416.5L684.5 411.2L684.8 407.2L685.1 402.9L685.4 398.7L685.7 394.5L686 387.4L686.3 381.3L686.6 376.3L687 371.4L687.3 365L687.6 361.6L687.9 363.4L688.2 357.5L688.5 352.4L688.8 348.6L689.2 344.1L689.5 342.5L689.8 341.7L690.1 338.3L690.4 337L690.7 335.4L691 333.7L691.3 330.2L691.7 326.5L692 319.2L692.3 313.3L692.6 309.3L692.9 308.1L693.2 305.7L693.5 307.8L693.8 303.6L694.2 299.9L694.5 297.6L694.8 293.2L695.1 286.1L695.4 279.1L695.7 271L696 267.3L696.4 265.6L696.7 264.6L697 258.8L697.3 255.9L697.6 251L697.9 246.1L698.2 246.7L698.5 255.6L698.9 251.6L699.2 247.2L699.5 247.7L699.8 247.5L700.1 246.3L700.4 244.4L700.7 242.5L701 237.4L701.4 233.7L701.7 229.9L702 252.8L702.3 236L702.6 230"></path></g><g id="markers"></g></g><g id="footer" class="SourcesFooter" style="fill:#5b5b5b"><g id="sources" class="markdown-text-wrap"><text x="16.0" y="562.7" style="font-size:13.5px;line-height:1.2"><tspan x="16" y="562.7"><tspan style="font-weight:700">Data source:</tspan> Bolt and van Zanden - Maddison Project Database 2023</tspan></text></g><g id="note" class="markdown-text-wrap"><text x="16.0" y="580.9" style="font-size:13.5px;line-height:1.2"><tspan x="16" y="580.9"><tspan style="font-weight:700">Note:</tspan> This data is expressed in <tspan class="dod-span" data-id="int_dollar_abbreviation">international-$<tspan style="font-feature-settings:&quot;sups&quot;"></tspan></tspan> at 2011 prices.</tspan></text></g><text id="origin-url" font-size="13.50" x="554.5" y="562.7"><tspan x="554.55" y="562.695"><a target="_blank" style="fill: #5b5b5b;" href="https://ourworldindata.org/economic-growth">OurWorldinData.org/economic-growth</a> | <a target="_blank" style="fill: #5b5b5b;" href="https://creativecommons.org/licenses/by/4.0/">CC BY</a></tspan></text></g><line id="separator-line" x1="16" y1="600" x2="834" y2="600" stroke="#e7e7e7"></line><g id="details" transform="translate(15, 616)"><g class="markdown-text-wrap"><text x="0.0" y="12.0" style="font-size:12.375px;fill:#5b5b5b;line-height:1.2"><tspan x="0" y="12.0"><tspan style="font-weight:700">1.</tspan> <tspan style="font-weight:700">International dollars</tspan>: International dollars are a hypothetical currency that is used to make meaningful comparisons of monetary indicators of</tspan><tspan x="0" y="26.9">living standards. Figures expressed in international dollars are adjusted for inflation within countries over time, and for differences in the cost of living</tspan><tspan x="0" y="41.7">between countries. The goal of such adjustments is to provide a unit whose purchasing power is held fixed over time and across countries, such that</tspan><tspan x="0" y="56.6">one international dollar can buy the same quantity and quality of goods and services no matter where or when it is spent. Read more in our article:</tspan><tspan x="0" y="71.4">What are Purchasing Power Parity adjustments and why do we need them?</tspan></text></g></g></svg>